<svg width="107" height="59" viewBox="0 0 107 59" xmlns="http://www.w3.org/2000/svg" xmlns:xlink="http://www.w3.org/1999/xlink"><title>Logo / OPEI</title><defs><path id="a" d="M0 0h107v59H0z"/></defs><g fill="none" fill-rule="evenodd"><mask id="b" fill="#fff"><use xlink:href="#a"/></mask><path d="M98.268 36.967c-5.77 1.438-12.76 2.953-19.222 4.164v-4.458c1.572-.32 4.492-.924 7.328-1.519l.102-.02V23.898l-.101-.022a757.72 757.72 0 0 0-7.33-1.555v-4.448c6.495 1.219 13.485 2.732 19.223 4.159v4.482a764.699 764.699 0 0 0-7.275-1.632l-.156-.034v9.366l.154-.032c2.33-.493 5.227-1.115 7.277-1.564v4.348zm-23.477 4.93c-6.185 1.066-13.349 2.114-19.22 2.81V14.294a383.053 383.053 0 0 1 19.22 2.81v4.354c-4.217-.667-11.446-1.737-14.715-2.176l-.144-.02v7.623h8.599v4.39h-8.6v8.462l.145-.02c3.308-.444 10.536-1.515 14.715-2.18v4.359zM46.954 25.73a1.16 1.16 0 0 1-1.155 1.161h-9.344v-6.04l.107-.018c2.459-.398 4.726-.75 6.221-.968.96-.14 1.916-.275 2.863-.406.333-.045.662.055.912.275.252.222.396.541.396.877v5.12zm3.101-9.988a3.68 3.68 0 0 0-2.923-.895c-2.16.28-3.833.509-4.976.674h.001c-1.73.255-3.599.543-5.554.86l-.148.024v-.004l-.358.058c-1.2.197-2.754.458-4.002.673v24.734c1.23.212 3.191.535 4.36.727V31.282h11.15c2.046 0 3.71-1.675 3.71-3.734v-9.002a3.742 3.742 0 0 0-1.26-2.803zM23.553 34.36c0 .386-.171.748-.471.994a1.271 1.271 0 0 1-1.066.264c-2.81-.58-5.579-1.188-8.231-1.81a1.277 1.277 0 0 1-.98-1.251v-6.115c0-.6.404-1.114.98-1.25a313.87 313.87 0 0 1 8.232-1.814 1.28 1.28 0 0 1 1.535 1.257v9.725zm2.63-14.51a4.051 4.051 0 0 0-3.396-.845 341.748 341.748 0 0 0-10.971 2.407 4.066 4.066 0 0 0-3.124 3.98v8.216c0 1.908 1.283 3.542 3.121 3.977 3.472.824 7.168 1.634 10.985 2.408a4.066 4.066 0 0 0 4.868-3.997V23.002c0-1.226-.54-2.375-1.483-3.15zm77.626 20.226C82.03 49.982 60.19 54.506 53.5 55.738 36.78 52.665 18.08 46.84 3.19 40.075V18.924C24.973 9.018 46.813 4.494 53.5 3.262c16.72 3.073 35.42 8.898 50.31 15.663v21.151zm2.261-23.642C90.722 9.343 71.176 3.22 53.784.05L53.5.001l-.284.05C46.7 1.24 23.674 5.926.93 16.434l-.93.429v25.275l.93.428c15.348 7.091 34.894 13.215 52.286 16.383L53.5 59l.284-.051c6.515-1.188 29.542-5.876 52.286-16.383l.93-.428V16.863l-.93-.43z" fill="#FFF" mask="url(#b)"/></g></svg>