<svg id="Layer_1" xmlns="http://www.w3.org/2000/svg" viewBox="0 0 13 10" enable-background="new 0 0 13 10"><style>.st0{filter:url(#Adobe_OpacityMaskFilter)}.st1{fill:#fff}.st2{mask:url(#mask-2);fill:#00aeef}</style><title>Icon / Arrow</title><g id="Symbols"><g id="Button-_x2F_-White" transform="translate(-96 -17)"><g transform="translate(32 12)" id="Stacked-Group"><g id="Icons-_x2F_-Arrow-_x2F_-White" transform="translate(64 5)"><g id="Group-3"><defs><filter id="Adobe_OpacityMaskFilter" filterUnits="userSpaceOnUse" x="0" y="0" width="12.9" height="9.7"><feColorMatrix values="1 0 0 0 0 0 1 0 0 0 0 0 1 0 0 0 0 0 1 0"/></filter></defs><mask maskUnits="userSpaceOnUse" x="0" y="0" width="12.9" height="9.7" id="mask-2"><g class="st0"><path id="path-1" class="st1" d="M0 0h12.9v9.7H0z"/></g></mask><path id="Fill-1" class="st2" d="M12.8 5.2c0-.1 0-.1 0 0 0-.1 0-.1.1-.1v-.6s0-.1-.1-.1L8.6.2c-.2-.3-.6-.3-.8 0-.2.2-.2.6 0 .9l3 3.1H.6c-.3 0-.6.3-.6.7 0 .4.3.6.6.6h10.2l-3 3.1c-.2.2-.2.7 0 .9.1.2.2.2.4.2s.3-.1.4-.2l4.1-4.2s.1 0 .1-.1z"/></g></g></g></g></g></svg>