<svg width="252" height="184" viewBox="0 0 252 184" xmlns="http://www.w3.org/2000/svg" xmlns:xlink="http://www.w3.org/1999/xlink"><title>Icons_people</title><defs><path id="a" d="M.45.375h99.308v155.268H.45z"/><path id="c" d="M0 .375h99.308v155.268H0z"/></defs><g fill="none" fill-rule="evenodd"><path d="M76.849 77.387c0 15.521 7.116 29.568 18.75 38.634-22.686 13.208-28.477 39.216-30.747 59.122a7.616 7.616 0 0 0 7.577 8.481 7.618 7.618 0 0 0 7.558-6.754c3.627-31.797 14.268-47.479 35.58-52.433a7.615 7.615 0 0 0 .486-14.706c-14.338-4.35-23.971-17.348-23.971-32.344 0-18.636 15.162-33.798 33.797-33.798 18.636 0 33.798 15.162 33.798 33.798 0 14.996-9.634 27.994-23.973 32.344a7.616 7.616 0 0 0 .487 14.707c21.314 4.954 31.955 20.636 35.58 52.431.477 4.18 4.252 7.186 8.432 6.705a7.617 7.617 0 0 0 6.704-8.43c-2.27-19.907-8.06-45.915-30.748-59.122 11.633-9.067 18.752-23.114 18.752-38.635 0-27.036-21.997-49.03-49.032-49.03-27.035 0-49.03 21.994-49.03 49.03" fill="#B5CB19"/><g transform="translate(152 -.375)"><mask id="b" fill="#fff"><use xlink:href="#a"/></mask><path d="M13.695 26.647a33.883 33.883 0 0 1 24.986-11.039c18.637 0 33.798 15.162 33.798 33.798 0 14.996-9.634 27.994-23.972 32.343a7.619 7.619 0 0 0-5.403 7.541 7.619 7.619 0 0 0 5.89 7.167c21.312 4.954 31.954 20.635 35.58 52.432a7.616 7.616 0 1 0 15.134-1.726c-2.27-19.907-8.06-45.914-30.747-59.122 11.634-9.067 18.752-23.113 18.752-38.635 0-27.035-21.996-49.03-49.032-49.03-13.759 0-26.97 5.835-36.245 16.01a7.618 7.618 0 0 0 11.26 10.261" fill="#B5CB19" mask="url(#b)"/></g><g transform="translate(0 -.375)"><mask id="d" fill="#fff"><use xlink:href="#c"/></mask><path d="M7.626 155.643a7.618 7.618 0 0 0 7.558-6.754c3.626-31.797 14.267-47.477 35.581-52.432a7.617 7.617 0 0 0 .486-14.708C36.913 77.4 27.278 64.403 27.278 49.406c0-18.636 15.162-33.797 33.798-33.797a33.886 33.886 0 0 1 24.987 11.038 7.615 7.615 0 0 0 10.76.498 7.616 7.616 0 0 0 .498-10.76C88.047 6.212 74.836.376 61.076.376c-27.035 0-49.03 21.996-49.03 49.03 0 15.523 7.117 29.57 18.75 38.636C8.11 101.249 2.32 127.256.05 147.164a7.617 7.617 0 0 0 7.577 8.479" fill="#B5CB19" mask="url(#d)"/></g></g></svg>