<svg width="49" height="51" viewBox="0 0 49 51" xmlns="http://www.w3.org/2000/svg" xmlns:xlink="http://www.w3.org/1999/xlink"><title>Icons_gavel</title><defs><path id="a" d="M0 0h53v55H0z"/></defs><g transform="translate(-2 -2)" fill="none" fill-rule="evenodd"><mask id="b" fill="#fff"><use xlink:href="#a"/></mask><path d="M5.123 50.064a2.626 2.626 0 0 1-.183-3.713l22.304-22.409 2.005 1.815L8.862 49.899a2.668 2.668 0 0 1-3.739.165zM23.45 18.817l9.011-9.83 11.28 10.207-9.01 9.83-11.28-10.207zm-4.194-.63l-.07-.061a2.26 2.26 0 0 1-.638-2.33c.097-.32.262-.607.489-.855l9.128-9.957a2.259 2.259 0 0 1 1.572-.73 2.261 2.261 0 0 1 1.634.58l.068.063a2.26 2.26 0 0 1 .64 2.33c-.098.32-.263.607-.49.855l-9.128 9.957a2.259 2.259 0 0 1-1.572.73 2.262 2.262 0 0 1-1.633-.581zm28.68 1.636l.07.062a2.26 2.26 0 0 1 .638 2.33c-.097.32-.262.607-.489.855l-9.128 9.957a2.259 2.259 0 0 1-1.572.73 2.262 2.262 0 0 1-1.633-.58l-.07-.063a2.261 2.261 0 0 1-.638-2.33c.097-.32.262-.607.489-.855l9.128-9.957a2.282 2.282 0 0 1 3.205-.149zM9.801 50.733a.6.6 0 0 0 .017-.02L30.18 26.6l3.85 3.484a3.497 3.497 0 0 0 .873 3.956l.069.062c.694.628 1.596.95 2.54.906a3.513 3.513 0 0 0 2.444-1.138l9.128-9.957c.354-.386.61-.834.763-1.333a3.512 3.512 0 0 0-.996-3.618l-.069-.062a3.552 3.552 0 0 0-4.047-.496L33.16 7.928a3.512 3.512 0 0 0-.873-3.956l-.069-.062a3.517 3.517 0 0 0-2.54-.906 3.512 3.512 0 0 0-2.444 1.138l-9.128 9.957c-.353.386-.61.834-.763 1.333a3.512 3.512 0 0 0 .996 3.618l.069.062c.694.629 1.596.95 2.54.907a3.546 3.546 0 0 0 1.507-.41l3.859 3.49L4.035 45.481a3.856 3.856 0 0 0-.866 1.499 3.874 3.874 0 0 0 1.107 4.009 3.934 3.934 0 0 0 5.525-.257z" stroke="#B5CB19" fill="#B5CB19" mask="url(#b)"/></g></svg>