<svg width="212" height="212" viewBox="0 0 212 212" xmlns="http://www.w3.org/2000/svg" xmlns:xlink="http://www.w3.org/1999/xlink"><title>Icons_pencil</title><defs><path id="a" d="M0 .494h211.687V212H0z"/></defs><g fill="none" fill-rule="evenodd"><g transform="translate(0 -.494)"><mask id="b" fill="#fff"><use xlink:href="#a"/></mask><path d="M78.477 190.76h.05-.05zm-53.83-55.343L8.777 203.22l67.805-15.869L200.892 63.04a11.165 11.165 0 0 0 3.295-7.954c0-3.002-1.168-5.83-3.295-7.954L164.87 11.105c-4.253-4.247-11.663-4.247-15.91 0L24.646 135.418zM3.751 212a3.75 3.75 0 0 1-3.653-4.604l17.488-74.728a3.753 3.753 0 0 1 1.001-1.797L143.655 5.803c7.08-7.08 19.432-7.08 26.517 0l36.022 36.027a18.61 18.61 0 0 1 5.493 13.256c0 5.01-1.95 9.716-5.493 13.257L81.128 193.41a3.755 3.755 0 0 1-1.797 1L4.605 211.903a3.931 3.931 0 0 1-.854.097z" fill="#00AEEF" mask="url(#b)"/></g><path d="M186.593 85.9c-.96 0-1.919-.366-2.651-1.098l-57.24-57.237a3.75 3.75 0 0 1 5.303-5.303L189.244 79.5a3.749 3.749 0 0 1-2.651 6.401M43.228 202.263a3.737 3.737 0 0 1-2.65-1.1l-30.24-30.238a3.749 3.749 0 1 1 5.302-5.303l30.24 30.24a3.75 3.75 0 0 1-2.652 6.4m35.244-8.246a3.747 3.747 0 0 1-3.67-3.013l-4.907-24.531-20.239-1.08a3.75 3.75 0 0 1-3.55-3.715l-.149-19.121-25.559-5.87a3.753 3.753 0 0 1-2.814-4.496c.463-2.017 2.477-3.257 4.494-2.819l28.445 6.534a3.754 3.754 0 0 1 2.91 3.629l.147 18.559 19.621 1.044a3.75 3.75 0 0 1 3.477 3.008l5.476 27.383a3.75 3.75 0 0 1-3.682 4.488" fill="#00AEEF"/><path d="M49.684 143.312a3.75 3.75 0 0 1-2.652-6.401l97.16-97.159a3.75 3.75 0 0 1 5.304 5.304l-97.161 97.157a3.737 3.737 0 0 1-2.651 1.1m23.318 23.32a3.739 3.739 0 0 1-2.652-1.1 3.747 3.747 0 0 1 0-5.301l97.16-97.163a3.749 3.749 0 0 1 5.304 0 3.747 3.747 0 0 1 0 5.302l-97.161 97.163a3.737 3.737 0 0 1-2.651 1.099" fill="#00AEEF"/></g></svg>