<svg width="20" height="10" viewBox="0 0 20 10" xmlns="http://www.w3.org/2000/svg"><title>Icons / Canada</title><g fill="none" fill-rule="evenodd"><path fill="#EA0617" d="M14.89 9.843h4.964V0H14.89zM0 9.843h4.964V0H0z"/><path fill="#FFF" d="M4.964 9.843h9.927V0H4.964z"/><path d="M10.115 9.034c-.049-.8-.07-1.318-.09-1.818-.01-.214.18-.195.32-.173 1.162.18 1.711.262 1.711.262-.417-.78-.124-.825.105-1.014a346.731 346.731 0 0 0 1.587-1.318c-.606-.203-.522-.127-.132-1.566-1.264.397-1.16.28-1.427-.338l-.888.993c-.11.125-.3.042-.26-.152.41-2.014.43-2.097.43-2.097-.8.48-.769.506-.897.259-.438-.85-.647-1.267-.647-1.267s-.209.418-.647 1.267c-.128.247-.098.22-.898-.26 0 0 .02.084.431 2.098.04.194-.149.277-.26.152l-.888-.993c-.268.617-.163.735-1.426.338.39 1.439.473 1.363-.133 1.566 0 0 .279.235 1.587 1.318.229.19.522.235.104 1.014 0 0 .55-.082 1.712-.262.14-.022.33-.041.32.173-.02.5-.041 1.018-.09 1.818h.376z" fill="#EA0617"/></g></svg>