<?xml version="1.0" encoding="UTF-8"?>
<svg width="13px" height="10px" viewBox="0 0 13 10" version="1.1" xmlns="http://www.w3.org/2000/svg" xmlns:xlink="http://www.w3.org/1999/xlink">
    <!-- Generator: Sketch 52.5 (67469) - http://www.bohemiancoding.com/sketch -->
    <title>Icon / Arrow</title>
    <desc>Created with Sketch.</desc>
    <defs>
        <polygon id="path-1" points="0 0.000192307692 12.8978571 0.000192307692 12.8978571 9.72773077 0 9.72773077"></polygon>
    </defs>
    <g id="Symbols" stroke="none" stroke-width="1" fill="none" fill-rule="evenodd">
        <g id="Button-/-White" transform="translate(-96.000000, -17.000000)">
            <g id="Stacked-Group">
                <g transform="translate(32.000000, 12.000000)">
                    <g id="Icons-/-Arrow-/-White" transform="translate(64.000000, 5.000000)">
                        <g id="Group-3">
                            <mask id="mask-2" fill="white">
                                <use xlink:href="#path-1"></use>
                            </mask>
                            <g id="Clip-2"></g>
                            <path d="M12.8201543,5.16773077 C12.8309257,5.14734615 12.84244,5.12773077 12.8513543,5.10657692 C12.8595257,5.08580769 12.8643543,5.06388462 12.8702971,5.04273077 C12.8754971,5.02426923 12.8821829,5.00696154 12.8858971,4.98811538 C12.9018686,4.90619231 12.9018686,4.82157692 12.8858971,4.73965385 C12.8821829,4.72042308 12.8754971,4.70311538 12.8702971,4.68465385 C12.8643543,4.66311538 12.8595257,4.64196154 12.8513543,4.62119231 C12.84244,4.59965385 12.8309257,4.58003846 12.8197829,4.55965385 C12.8116114,4.54388462 12.8049257,4.52734615 12.7948971,4.51196154 C12.77224,4.47696154 12.7466114,4.44426923 12.7180114,4.41465385 L8.63415429,0.185807692 C8.39532571,-0.0618846154 8.00681143,-0.0618846154 7.76761143,0.185807692 C7.52841143,0.4335 7.52841143,0.835423077 7.76761143,1.08311538 L10.8058971,4.22926923 L0.646010045,4.22926923 C0.307638616,4.22926923 0.0331529018,4.5135 0.0331529018,4.86388462 C0.0331529018,5.21426923 0.307638616,5.4985 0.646010045,5.4985 L10.8058971,5.4985 L7.76761143,8.64426923 C7.52841143,8.89234615 7.52841143,9.29426923 7.76761143,9.54196154 C7.88721143,9.66580769 8.04395429,9.72773077 8.20106857,9.72773077 C8.35781143,9.72773077 8.51492571,9.66580769 8.63415429,9.54196154 L12.7180114,5.31311538 C12.7466114,5.2835 12.77224,5.25080769 12.7948971,5.21580769 C12.8049257,5.20042308 12.8116114,5.18388462 12.8201543,5.16773077 Z" id="Fill-1" fill="#FFFFFF" mask="url(#mask-2)"></path>
                        </g>
                    </g>
                </g>
            </g>
        </g>
    </g>
</svg>