<?xml version="1.0" encoding="utf-8"?>
<!-- Generator: Adobe Illustrator 21.0.2, SVG Export Plug-In . SVG Version: 6.00 Build 0)  -->
<svg version="1.1" id="Layer_1" xmlns="http://www.w3.org/2000/svg" xmlns:xlink="http://www.w3.org/1999/xlink" x="0px" y="0px"
	 viewBox="0 0 13 10" style="enable-background:new 0 0 13 10;" xml:space="preserve">
<style type="text/css">
	.st0{filter:url(#Adobe_OpacityMaskFilter);}
	.st1{fill:#FFFFFF;}
	.st2{mask:url(#mask-2);fill:#00AEEF;}
</style>
<title>Icon / Arrow</title>
<desc>Created with Sketch.</desc>
<g id="Symbols">
	<g id="Button-_x2F_-White" transform="translate(-96.000000, -17.000000)">
		<g id="Stacked-Group">
			<g transform="translate(32.000000, 12.000000)">
				<g id="Icons-_x2F_-Arrow-_x2F_-White" transform="translate(64.000000, 5.000000)">
					<g id="Group-3">
						<g id="Clip-2">
						</g>
						<defs>
							<filter id="Adobe_OpacityMaskFilter" filterUnits="userSpaceOnUse" x="0" y="0" width="12.9" height="9.7">
								<feColorMatrix  type="matrix" values="1 0 0 0 0  0 1 0 0 0  0 0 1 0 0  0 0 0 1 0"/>
							</filter>
						</defs>
						<mask maskUnits="userSpaceOnUse" x="0" y="0" width="12.9" height="9.7" id="mask-2">
							<g class="st0">
								<polygon id="path-1" class="st1" points="0,0 12.9,0 12.9,9.7 0,9.7 								"/>
							</g>
						</mask>
						<path id="Fill-1" class="st2" d="M12.8,5.2C12.8,5.1,12.8,5.1,12.8,5.2c0-0.1,0-0.1,0.1-0.1c0,0,0,0,0-0.1c0-0.1,0-0.2,0-0.2
							c0,0,0,0,0-0.1c0,0,0,0,0-0.1c0,0,0,0,0-0.1c0,0,0,0,0,0c0,0,0-0.1-0.1-0.1L8.6,0.2C8.4-0.1,8-0.1,7.8,0.2
							c-0.2,0.2-0.2,0.6,0,0.9l3,3.1H0.6C0.3,4.2,0,4.5,0,4.9c0,0.4,0.3,0.6,0.6,0.6h10.2l-3,3.1c-0.2,0.2-0.2,0.7,0,0.9
							C7.9,9.7,8,9.7,8.2,9.7c0.2,0,0.3-0.1,0.4-0.2l4.1-4.2C12.7,5.3,12.8,5.3,12.8,5.2C12.8,5.2,12.8,5.2,12.8,5.2z"/>
					</g>
				</g>
			</g>
		</g>
	</g>
</g>
</svg>
