<svg width="13" height="10" viewBox="0 0 13 10" xmlns="http://www.w3.org/2000/svg" xmlns:xlink="http://www.w3.org/1999/xlink"><title>Icon / Arrow</title><defs><path id="a" d="M0 0h12.898v9.728H0z"/></defs><g fill="none" fill-rule="evenodd"><mask id="b" fill="#fff"><use xlink:href="#a"/></mask><path d="M12.82 5.168c.01-.02.022-.04.031-.061.009-.021.013-.043.02-.064.004-.019.011-.036.015-.055a.65.65 0 0 0 0-.248c-.004-.02-.01-.037-.016-.055-.006-.022-.01-.043-.019-.064-.009-.021-.02-.041-.031-.061-.008-.016-.015-.033-.025-.048a.642.642 0 0 0-.077-.097L8.634.185a.598.598 0 0 0-.866 0 .65.65 0 0 0 0 .898l3.038 3.146H.646a.624.624 0 0 0-.613.635c0 .35.275.635.613.635h10.16L7.768 8.643a.651.651 0 0 0 0 .898.6.6 0 0 0 .866 0l4.084-4.229a.642.642 0 0 0 .077-.097c.01-.016.017-.032.025-.048z" fill="#FFF" mask="url(#b)"/></g></svg>