<svg width="17" height="17" viewBox="0 0 17 17" xmlns="http://www.w3.org/2000/svg" xmlns:xlink="http://www.w3.org/1999/xlink"><title>Icon / Search</title><defs><path id="a" d="M0 0h16.974v16.977H0z"/></defs><g fill="none" fill-rule="evenodd"><mask id="b" fill="#fff"><use xlink:href="#a"/></mask><path d="M10.256 9.93l-.157.172-.171.157a5.076 5.076 0 0 1-3.435 1.332 5.06 5.06 0 0 1-3.602-1.492 5.06 5.06 0 0 1-1.49-3.603 5.06 5.06 0 0 1 1.49-3.602 5.06 5.06 0 0 1 3.602-1.492c1.36 0 2.64.53 3.603 1.492a5.061 5.061 0 0 1 1.492 3.602 5.076 5.076 0 0 1-1.332 3.435m6.436 5.4l-4.974-4.973a6.475 6.475 0 0 0 1.272-3.862 6.454 6.454 0 0 0-1.903-4.593A6.454 6.454 0 0 0 6.493 0 6.454 6.454 0 0 0 1.9 1.903 6.453 6.453 0 0 0 0 6.496a6.45 6.45 0 0 0 1.9 4.594 6.454 6.454 0 0 0 4.593 1.903 6.476 6.476 0 0 0 3.862-1.272l4.973 4.974a.96.96 0 0 0 .682.282.965.965 0 0 0 .682-1.646" fill="#FFF" mask="url(#b)"/></g></svg>