<?xml version="1.0" encoding="UTF-8"?>
<svg width="20px" height="10px" viewBox="0 0 20 10" version="1.1" xmlns="http://www.w3.org/2000/svg" xmlns:xlink="http://www.w3.org/1999/xlink">
    <!-- Generator: Sketch 52.5 (67469) - http://www.bohemiancoding.com/sketch -->
    <title>Icons / Canada</title>
    <desc>Created with Sketch.</desc>
    <g id="Symbols" stroke="none" stroke-width="1" fill="none" fill-rule="evenodd">
        <g id="Components-/-Masthead" transform="translate(-1044.000000, -19.000000)">
            <g id="Masthead">
                <g id="Utility-Nav" transform="translate(917.000000, 15.000000)">
                    <g id="Icons-/-Canada" transform="translate(127.000000, 4.000000)">
                        <g id="Group-6">
                            <polygon id="Fill-1" fill="#EA0617" points="14.8904274 9.84266102 19.8540171 9.84266102 19.8540171 -5.08474576e-05 14.8904274 -5.08474576e-05"></polygon>
                            <polygon id="Fill-2" fill="#EA0617" points="0 9.84266102 4.96358974 9.84266102 4.96358974 -5.08474576e-05 0 -5.08474576e-05"></polygon>
                            <polygon id="Fill-3" fill="#FFFFFF" points="4.96358974 9.84266102 14.8905983 9.84266102 14.8905983 -5.08474576e-05 4.96358974 -5.08474576e-05"></polygon>
                            <path d="M10.1148547,9.03386441 C10.0661368,8.23352542 10.0452821,7.7160678 10.0244274,7.21555932 C10.0155385,7.002 10.2042564,7.02149153 10.3445983,7.04318644 C11.5068205,7.22250847 12.0563932,7.30538983 12.0563932,7.30538983 C11.6389573,6.52572881 11.9322906,6.48047458 12.1608376,6.29098305 C13.4692137,5.20776271 13.7475043,4.97318644 13.7475043,4.97318644 C13.1422051,4.76962712 13.2256239,4.84555932 13.6155385,3.40691525 C12.3522906,3.80369492 12.4565641,3.68623729 12.1887009,3.06877966 C12.1887009,3.06877966 12.0914359,3.17911864 11.3013504,4.06233898 C11.1900684,4.18691525 11.0011795,4.10352542 11.0404957,3.91047458 C11.4509231,1.89572881 11.4717778,1.81284746 11.4717778,1.81284746 C10.6716068,2.29250847 10.7022051,2.31928814 10.5743419,2.07166102 C10.1357094,1.22284746 9.92699145,0.805389831 9.92699145,0.805389831 C9.92699145,0.805389831 9.7182735,1.22284746 9.27981197,2.07166102 C9.15194872,2.31928814 9.18237607,2.29250847 8.38203419,1.81284746 C8.38203419,1.81284746 8.40288889,1.89572881 8.81348718,3.91047458 C8.85280342,4.10352542 8.66408547,4.18691525 8.55246154,4.06233898 C7.76271795,3.17911864 7.66528205,3.06877966 7.66528205,3.06877966 C7.3974188,3.68623729 7.50169231,3.80369492 6.23861538,3.40691525 C6.62835897,4.84555932 6.71177778,4.76962712 6.10630769,4.97318644 C6.10630769,4.97318644 6.38476923,5.20776271 7.6931453,6.29098305 C7.92169231,6.48047458 8.21502564,6.52572881 7.7974188,7.30538983 C7.7974188,7.30538983 8.34716239,7.22250847 9.50938462,7.04318644 C9.64955556,7.02149153 9.83844444,7.002 9.82955556,7.21555932 C9.80870085,7.7160678 9.78784615,8.23352542 9.73912821,9.03386441 L10.1148547,9.03386441 Z" id="Fill-4" fill="#EA0617"></path>
                        </g>
                    </g>
                </g>
            </g>
        </g>
    </g>
</svg>