<svg width="50" height="50" viewBox="0 0 50 50" xmlns="http://www.w3.org/2000/svg" xmlns:xlink="http://www.w3.org/1999/xlink"><title>Icons_Phone</title><defs><path id="a" d="M0 0h56v56H0z"/></defs><g transform="translate(-3 -3)" fill="none" fill-rule="evenodd"><mask id="b" fill="#fff"><use xlink:href="#a"/></mask><path d="M13.268 5.927c-.762 0-1.495.304-2.036.848l-4.093 4.109c-4.493 4.514 4.15 16.398 12.915 25.202 15.001 15.066 22.833 15.242 25.094 12.971l4.091-4.11a2.904 2.904 0 0 0-.267-4.329l-6.407-5.007a2.865 2.865 0 0 0-3.554.013l-1.425 1.13a4.782 4.782 0 0 1-6.367-.373L19.761 24.873a4.836 4.836 0 0 1-.372-6.396l1.125-1.43a2.897 2.897 0 0 0 .013-3.57L15.54 7.041a2.88 2.88 0 0 0-2.273-1.115zM41.968 52c-4.164 0-11.447-2.679-23.269-14.553C13.923 32.651-1.123 16.461 5.784 9.523l4.091-4.11a4.76 4.76 0 0 1 3.69-1.402 4.794 4.794 0 0 1 3.488 1.85l4.987 6.433a4.825 4.825 0 0 1-.022 5.947l-1.125 1.43a2.903 2.903 0 0 0 .223 3.84L32.575 35.02a2.872 2.872 0 0 0 3.823.224l1.424-1.13a4.77 4.77 0 0 1 5.921-.022l6.406 5.007a4.832 4.832 0 0 1 .446 7.209l-4.092 4.11C46.018 50.906 44.63 52 41.968 52z" stroke="#B5CB19" fill="#B5CB19" mask="url(#b)"/></g></svg>