<svg width="433" height="287" viewBox="0 0 433 287" xmlns="http://www.w3.org/2000/svg"><title>Icons_envelope</title><path d="M297.129 143.773l110.875-96.326v191.556l-110.875-95.23zM154.26 160.085l38.914 33.808c6.24 5.38 14.466 8.332 23.134 8.332 8.666 0 16.875-2.952 23.132-8.332l38.914-33.808 118.31 101.644H35.95l118.31-101.644zM35.794 24.61H396.82L223.408 175.224c-1.775 1.512-4.359 2.391-7.1 2.391-2.743 0-5.344-.879-7.102-2.391L35.794 24.61zM24.61 47.447l110.873 96.324L24.61 239.005V47.447zM413.901 3.438A33.77 33.77 0 0 0 399.108 0H33.505a33.845 33.845 0 0 0-14.849 3.465C7.148 9.19 0 20.701 0 33.503v219.332c0 18.475 15.031 33.504 33.505 33.504h365.603c18.475 0 33.506-15.029 33.506-33.504V33.503c0-12.802-7.148-24.313-18.713-30.065z" fill="#B5CB19" fill-rule="evenodd"/></svg>