<?xml version="1.0" encoding="UTF-8"?>
<svg width="433px" height="287px" viewBox="0 0 433 287" version="1.1" xmlns="http://www.w3.org/2000/svg" xmlns:xlink="http://www.w3.org/1999/xlink">
    <!-- Generator: Sketch 52.5 (67469) - http://www.bohemiancoding.com/sketch -->
    <title>Icons_envelope</title>
    <desc>Created with Sketch.</desc>
    <g id="Symbols" stroke="none" stroke-width="1" fill="none" fill-rule="evenodd">
        <g id="Icons-/-Envelope" fill="#B5CB19">
            <g id="Icons_envelope">
                <path d="M297.129,143.773 L408.004,47.447 L408.004,239.003 L297.129,143.773 Z M154.26,160.085 L193.174,193.893 C199.414,199.273 207.64,202.225 216.308,202.225 C224.974,202.225 233.183,199.273 239.44,193.893 L278.354,160.085 L396.664,261.729 L35.95,261.729 L154.26,160.085 Z M35.794,24.61 L396.82,24.61 L223.408,175.224 C221.633,176.736 219.049,177.615 216.308,177.615 C213.565,177.615 210.964,176.736 209.206,175.224 L35.794,24.61 Z M24.61,47.447 L135.483,143.771 L24.61,239.005 L24.61,47.447 Z M413.901,3.438 C409.317,1.189 404.203,-2.84217094e-14 399.108,-2.84217094e-14 L33.505,-2.84217094e-14 C28.411,-2.84217094e-14 23.296,1.189 18.656,3.465 C7.148,9.19 7.10542736e-13,20.701 7.10542736e-13,33.503 L7.10542736e-13,252.835 C7.10542736e-13,271.31 15.031,286.339 33.505,286.339 L399.108,286.339 C417.583,286.339 432.614,271.31 432.614,252.835 L432.614,33.503 C432.614,20.701 425.466,9.19 413.901,3.438 Z" id="Fill-1"></path>
            </g>
        </g>
    </g>
</svg>