<svg width="273" height="206" viewBox="0 0 273 206" xmlns="http://www.w3.org/2000/svg" xmlns:xlink="http://www.w3.org/1999/xlink"><title>Group 3</title><defs><path id="a" d="M0 0h273v206H0z"/></defs><g fill="none" fill-rule="evenodd"><mask id="b" fill="#fff"><use xlink:href="#a"/></mask><path d="M173.337 21.343c4.26 0 7.037 2.778 7.037 9.364s-2.777 9.364-7.037 9.364c-4.325 0-7.103-2.778-7.103-9.364s2.778-9.364 7.103-9.364zm0 25.508c8.976 0 15.044-5.813 15.044-16.144 0-10.332-6.068-16.144-15.044-16.144-9.039 0-15.108 5.812-15.108 16.144 0 10.331 6.07 16.144 15.108 16.144zm25.682 139.905h-11.75c.385-4.714 2.13-7.49 6.456-7.49 3.097 0 5.424 1.937 5.424 5.553 0 .58-.065 1.227-.13 1.937zm7.295-.194c0-8.718-4.907-12.85-12.719-12.85-9.362 0-14.398 6.715-14.398 16.143 0 9.43 4.648 16.145 14.85 16.145 5.295 0 8.715-1.486 10.912-2.97.774-.519 1.032-1.486 1.032-2.713v-1.42c0-.905-.386-1.422-1.097-1.422-.45 0-1.42.388-2.26.776-1.16.516-3.357 1.42-6.327 1.42-6.134 0-9.169-2.712-9.169-8.459h18.79c.321-1.486.386-3.358.386-4.65zm-29.188 13.755v1.356c0 1.227-.258 2.002-.838 2.454-1.485 1.162-3.487 1.678-6.714 1.678-3.617 0-6.457-2.002-6.457-6.004v-20.148h-2.712c-.709 0-1.227-.517-1.227-1.227v-2.84c0-.712.518-1.228 1.227-1.228h2.712v-6.265c0-.709.516-1.226 1.227-1.226h5.552c.712 0 1.227.517 1.227 1.226v6.265h4.65c.71 0 1.226.516 1.226 1.227v2.841c0 .71-.516 1.227-1.227 1.227h-4.649V197.8c0 1.355.581 2.066 1.871 2.066.905 0 1.292-.13 1.874-.324.388-.129 1.033-.387 1.357-.387.451 0 .901.194.901 1.163zm-20.08 1.162v.775c0 1.614-.905 3.486-4.652 3.486-2.775 0-4.712-1.29-4.712-3.938v-.516c-2.71 2.582-6.004 4.454-10.136 4.454-5.875 0-8.782-3.486-8.782-10.138v-20.017c0-.71.518-1.227 1.227-1.227h5.554c.71 0 1.225.516 1.225 1.227v18.791c0 2.97 1.55 4.133 4.004 4.133 2.324 0 5.294-1.163 6.845-2.519v-20.405c0-.71.515-1.227 1.224-1.227h5.555c.71 0 1.227.516 1.227 1.227v23.827c0 1.486.451 2.067 1.42 2.067zm-31.9-1.162v1.356c0 1.227-.259 2.002-.84 2.454-1.485 1.162-3.486 1.678-6.714 1.678-3.616 0-6.456-2.002-6.456-6.004v-20.148h-2.712c-.71 0-1.227-.517-1.227-1.227v-2.84c0-.712.516-1.228 1.227-1.228h2.712v-6.265c0-.709.516-1.226 1.227-1.226h5.552c.712 0 1.228.517 1.228 1.226v6.265h4.647c.712 0 1.227.516 1.227 1.227v2.841c0 .71-.515 1.227-1.227 1.227h-4.647V197.8c0 1.355.58 2.066 1.87 2.066.905 0 1.292-.13 1.873-.324.388-.129 1.034-.387 1.355-.387.453 0 .904.194.904 1.163zm-22.34-34.87c0 2.26-1.874 4.132-4.133 4.132-2.258 0-4.132-1.872-4.132-4.133 0-2.26 1.874-4.133 4.132-4.133 2.26 0 4.132 1.873 4.132 4.133zm-.13 10.138v28.542c0 .711-.517 1.226-1.226 1.226h-5.554c-.708 0-1.225-.515-1.225-1.226v-28.542c0-.71.517-1.227 1.225-1.227h5.554c.71 0 1.225.516 1.225 1.227zm-12.264 24.732v1.356c0 1.227-.258 2.002-.839 2.454-1.485 1.162-3.486 1.678-6.714 1.678-3.616 0-6.457-2.002-6.457-6.004v-20.148h-2.71c-.71 0-1.229-.517-1.229-1.227v-2.84c0-.712.518-1.228 1.228-1.228h2.711v-6.265c0-.709.517-1.226 1.227-1.226h5.553c.711 0 1.227.517 1.227 1.226v6.265h4.648c.711 0 1.227.516 1.227 1.227v2.841c0 .71-.516 1.227-1.227 1.227H84.41V197.8c0 1.355.581 2.066 1.87 2.066.905 0 1.292-.13 1.874-.324.388-.129 1.034-.387 1.357-.387.452 0 .902.194.902 1.163zm-19.965-4.327c0 6.781-5.424 10.01-11.427 10.01-4.713 0-7.879-1.42-9.363-2.325-1.228-.71-1.613-1.42-1.613-2.454v-3.228c0-.97.385-1.42 1.097-1.42.453 0 .838.128 1.42.45 1.55.84 4.327 2.455 7.49 2.455 2.26 0 4.52-.518 4.52-3.166 0-2.323-1.485-3.292-4.713-3.937-4.778-.97-9.364-3.1-9.364-9.106 0-6.264 5.167-9.557 10.784-9.557 4.325 0 7.102 1.293 8.522 2.131 1.227.775 1.68 1.42 1.68 2.454v3.1c0 .968-.39 1.42-1.164 1.42-.45 0-.839-.129-1.355-.452-1.485-.904-3.228-2.454-6.716-2.454-2.259 0-4.002.711-4.002 3.035 0 1.872 1.485 2.905 4.325 3.487 5.682 1.162 9.88 3.293 9.88 9.557zM43.26 184.11v20.017c0 .711-.518 1.227-1.227 1.227H36.48c-.71 0-1.226-.516-1.226-1.227v-18.79c0-2.972-1.55-4.134-4.005-4.134-3.614 0-6.842 1.55-6.842 1.55v21.374c0 .711-.518 1.227-1.227 1.227h-5.554c-.709 0-1.225-.516-1.225-1.227v-28.54c0-.713.516-1.23 1.225-1.23h3.165c2.194 0 3.551 1.551 3.551 3.23 1.68-1.358 4.778-3.617 9.812-3.617 6.2 0 9.106 3.488 9.106 10.14zm-32.864-18.922v38.94c0 .71-.518 1.225-1.227 1.225H3.485c-.71 0-1.227-.515-1.227-1.226v-38.939c0-.71.517-1.227 1.227-1.227h5.683c.71 0 1.227.517 1.227 1.227zM273 142.908v1.355c0 1.228-.258 2.002-.839 2.455-1.485 1.162-3.487 1.678-6.714 1.678-3.616 0-6.456-2-6.456-6.005v-20.147h-2.713c-.71 0-1.227-.517-1.227-1.228v-2.84c0-.71.516-1.227 1.227-1.227h2.713v-6.265c0-.71.516-1.226 1.226-1.226h5.553c.711 0 1.227.516 1.227 1.226v6.265h4.648c.711 0 1.227.517 1.227 1.227v2.84c0 .711-.516 1.228-1.227 1.228h-4.648v18.145c0 1.356.581 2.066 1.871 2.066.904 0 1.291-.128 1.873-.322.388-.129 1.034-.388 1.355-.388.453 0 .904.194.904 1.162zm-21.116-16.209v20.018c0 .71-.518 1.228-1.227 1.228h-5.552c-.71 0-1.227-.518-1.227-1.228v-18.79c0-2.97-1.55-4.133-4.004-4.133-3.615 0-6.845 1.55-6.845 1.55v21.373c0 .71-.516 1.228-1.224 1.228h-5.555c-.709 0-1.225-.518-1.225-1.228v-28.54c0-.71.516-1.228 1.225-1.228h3.165c2.194 0 3.551 1.55 3.551 3.228 1.68-1.356 4.778-3.616 9.812-3.616 6.2 0 9.106 3.488 9.106 10.138zm-38.746 2.647h-11.75c.386-4.713 2.131-7.49 6.456-7.49 3.097 0 5.422 1.938 5.422 5.554 0 .58-.063 1.226-.128 1.936zm7.296-.193c0-8.718-4.907-12.85-12.72-12.85-9.36 0-14.398 6.715-14.398 16.144 0 9.428 4.65 16.144 14.851 16.144 5.295 0 8.715-1.486 10.912-2.97.773-.518 1.031-1.486 1.031-2.713v-1.42c0-.905-.386-1.422-1.097-1.422-.45 0-1.42.388-2.259.775-1.162.517-3.357 1.421-6.328 1.421-6.133 0-9.169-2.712-9.169-8.46h18.79c.321-1.485.387-3.357.387-4.649zm-42.878-5.359c-2.778 0-6.329 1.55-6.329 1.55v21.373c0 .71-.516 1.228-1.224 1.228h-5.555c-.709 0-1.225-.518-1.225-1.228v-18.985c0-2.776-1.422-3.938-3.747-3.938-2.712 0-6.262 1.55-6.262 1.55v21.373c0 .71-.516 1.228-1.226 1.228h-5.554c-.708 0-1.225-.518-1.225-1.228v-28.54c0-.71.517-1.228 1.225-1.228h3.165c2.195 0 3.552 1.55 3.552 3.228 1.613-1.227 4.906-3.616 9.491-3.616 3.744 0 6.326 1.68 7.423 4.07 1.746-1.746 6.005-4.07 10.59-4.07 5.745 0 8.585 3.488 8.585 10.01v20.146c0 .71-.515 1.228-1.225 1.228h-5.553c-.709 0-1.226-.518-1.226-1.228v-18.985c0-2.776-1.42-3.938-3.68-3.938zM125.64 141.81c-3.162 0-5.422-1.808-6.584-3.55v-11.625c1.162-1.744 3.422-3.552 6.584-3.552 4.067 0 6.587 2.518 6.587 9.364 0 6.845-2.52 9.363-6.587 9.363zm14.593-9.363c0-10.46-5.1-15.95-12.72-15.95-4.52 0-7.102 1.872-8.522 3.746 0-1.809-1.357-3.294-3.55-3.294h-3.166c-.709 0-1.225.517-1.225 1.227v42.49c0 .711.516 1.226 1.225 1.226h5.554c.71 0 1.227-.515 1.227-1.226v-16.079c1.29 1.743 3.937 3.81 8.457 3.81 7.62 0 12.72-5.489 12.72-15.95zm-35.449-24.41c0 2.261-1.872 4.133-4.132 4.133-2.258 0-4.132-1.872-4.132-4.133 0-2.259 1.874-4.133 4.132-4.133 2.26 0 4.132 1.874 4.132 4.133zm-.128 10.14v28.541c0 .71-.517 1.226-1.227 1.226h-5.554c-.708 0-1.225-.517-1.225-1.226v-28.542c0-.71.517-1.227 1.225-1.227h5.554c.71 0 1.227.517 1.227 1.227zM91.48 144.07v.774c0 1.615-.904 3.488-4.65 3.488-2.776 0-4.714-1.292-4.714-3.939v-.516c-2.71 2.582-6.003 4.455-10.135 4.455-5.875 0-8.78-3.488-8.78-10.139v-20.017c0-.71.516-1.227 1.224-1.227h5.555c.71 0 1.225.517 1.225 1.227v18.791c0 2.97 1.55 4.132 4.004 4.132 2.324 0 5.295-1.162 6.844-2.518v-20.405c0-.71.516-1.227 1.225-1.227h5.555c.71 0 1.224.517 1.224 1.227v23.828c0 1.485.454 2.066 1.423 2.066zm-48.496-2.26c-4.069 0-6.585-2.518-6.585-9.363 0-6.846 2.516-9.364 6.585-9.364 3.164 0 5.422 1.808 6.585 3.552v11.624c-1.163 1.743-3.42 3.551-6.585 3.551zm7.812 20.082h5.552c.711 0 1.227-.515 1.227-1.226v-42.49c0-.71-.516-1.227-1.227-1.227h-3.163c-2.194 0-3.552 1.485-3.552 3.294-1.42-1.874-4.002-3.746-8.522-3.746-7.618 0-12.719 5.49-12.719 15.95 0 10.461 5.101 15.95 12.72 15.95 4.52 0 7.166-2.067 8.457-3.81v16.08c0 .71.518 1.225 1.227 1.225zm-40.4-48.237v8.976h10.911c.71 0 1.225.517 1.225 1.227v4.651c0 .71-.516 1.225-1.225 1.225h-10.91v11.108h14.461c.71 0 1.225.516 1.225 1.226v4.65c0 .71-.516 1.227-1.225 1.227H3.485c-.71 0-1.227-.518-1.227-1.227V107.78c0-.71.517-1.228 1.227-1.228H24.34c.711 0 1.227.518 1.227 1.228v4.65c0 .71-.516 1.226-1.227 1.226H10.395zm146.131-47.689c1.81 0 3.81.903 3.81 2.323v6.071c0 .71-.45 1.162-1.163 1.162-.45 0-.838-.194-1.227-.452-.903-.58-1.743-1.163-3.42-1.163-2.52 0-4.648 1.292-5.813 2.261v19.695c0 .711-.516 1.228-1.225 1.228h-5.554c-.709 0-1.225-.517-1.225-1.228V67.321c0-.71.516-1.227 1.225-1.227h3.165c2.194 0 3.551 1.55 3.551 3.23v.451c1.808-2.066 4.841-3.809 7.876-3.809zm-33.642 5.036c3.098 0 5.424 1.938 5.424 5.553 0 .581-.065 1.227-.13 1.937h-11.75c.386-4.713 2.13-7.49 6.456-7.49zm-14.527 10.591c0 9.427 4.648 16.144 14.85 16.144 5.294 0 8.714-1.486 10.911-2.97.774-.518 1.032-1.486 1.032-2.714v-1.42c0-.904-.386-1.42-1.097-1.42-.45 0-1.42.387-2.259.774-1.162.517-3.358 1.42-6.328 1.42-6.133 0-9.169-2.71-9.169-8.459h18.79c.321-1.485.386-3.357.386-4.649 0-8.718-4.906-12.85-12.719-12.85-9.362 0-14.397 6.715-14.397 16.144zm-1.429-14.336c0 .774-.258 1.68-.516 2.518l-8.458 26.153c-.258.71-.58 1.163-1.292 1.163h-4.906c-.71 0-1.099-.388-1.292-1.163l-3.616-11.946c-.646-2.26-1.548-5.812-1.548-6.328 0-.518 0-.71-.26-.71-.258 0-.258.192-.258.71 0 .516-.904 4.067-1.548 6.328l-3.616 11.946c-.258.775-.58 1.163-1.292 1.163H73.42c-.71 0-1.034-.453-1.292-1.163L63.67 69.775c-.258-.775-.516-1.744-.516-2.518 0-.646.451-1.163 1.097-1.163h5.23c.775 0 1.227.324 1.484 1.1l4.005 14.205c.58 2.001 1.29 4.843 1.29 5.36 0 .516 0 .71.258.71s.258-.194.258-.71c0-.517.581-3.359 1.162-5.36l4.004-14.206c.193-.775.711-1.099 1.485-1.099h3.228c.774 0 1.292.324 1.485 1.1l4.067 14.205c.582 2.001 1.097 4.843 1.097 5.36 0 .516 0 .71.261.71.257 0 .257-.194.257-.71 0-.517.774-3.359 1.355-5.36l3.94-14.206c.192-.84.708-1.099 1.484-1.099h5.23c.646 0 1.097.517 1.097 1.163zm-60.244 23.7c-4.325 0-7.102-2.778-7.102-9.364 0-6.587 2.777-9.364 7.102-9.364 4.26 0 7.037 2.777 7.037 9.364 0 6.586-2.777 9.363-7.037 9.363zm0-25.509c-9.038 0-15.108 5.812-15.108 16.145 0 10.332 6.07 16.144 15.108 16.144 8.976 0 15.044-5.812 15.044-16.144 0-10.333-6.068-16.145-15.044-16.145zm-36.289-3.292h4.132c4.971 0 6.907 2.324 6.907 6.78 0 4.52-2.066 6.78-6.78 6.78h-4.259v-13.56zM3.485 97.09h5.683c.71 0 1.227-.516 1.227-1.227V82.174h6.261c7.813 0 12.977-4.843 12.977-13.238 0-8.847-4.906-13.239-13.105-13.239H3.485c-.71 0-1.227.518-1.227 1.228v38.938c0 .711.517 1.227 1.227 1.227zm188.82-52.08V16.466c0-.709.515-1.228 1.224-1.228h3.165c2.194 0 3.552 1.55 3.552 3.23v.452c1.807-2.067 4.841-3.81 7.876-3.81 1.808 0 3.808.904 3.808 2.324v6.07c0 .711-.45 1.163-1.162 1.163-.45 0-.838-.194-1.226-.452-.904-.58-1.744-1.163-3.422-1.163-2.519 0-4.647 1.291-5.81 2.261V45.01c0 .71-.518 1.227-1.227 1.227h-5.554c-.709 0-1.225-.517-1.225-1.227zm-52.697-23.636c4.26 0 7.037 2.778 7.037 9.364s-2.778 9.364-7.037 9.364c-4.326 0-7.103-2.778-7.103-9.364s2.777-9.364 7.103-9.364zm0 25.508c8.975 0 15.042-5.812 15.042-16.144 0-10.332-6.067-16.144-15.042-16.144-9.039 0-15.109 5.812-15.109 16.144 0 10.332 6.07 16.144 15.11 16.144zm-33.775-25.508c3.1 0 5.36 1.81 6.521 3.552V36.55c-1.162 1.743-3.42 3.552-6.52 3.552-4.133 0-6.65-2.519-6.65-9.364 0-6.845 2.517-9.364 6.65-9.364zm-1.936 25.314c4.52 0 7.167-1.872 8.587-3.616.258 2.325 1.874 3.551 4.648 3.551 3.744 0 4.648-1.872 4.648-3.487v-.775c-.967 0-1.42-.58-1.42-2.066V1.228c0-.71-.516-1.228-1.227-1.228h-5.552c-.709 0-1.227.517-1.227 1.228v17.37c-1.29-1.743-3.937-3.81-8.457-3.81-7.619 0-12.72 5.49-12.72 15.95 0 10.461 5.101 15.95 12.72 15.95zm-32.8-27.38v-2.84c0-.71.514-1.228 1.225-1.228h2.713V8.976c0-.71.516-1.227 1.227-1.227h5.552c.711 0 1.227.517 1.227 1.227v6.264h4.648c.711 0 1.227.518 1.227 1.228v2.84c0 .711-.516 1.227-1.227 1.227h-4.648V38.68c0 1.356.581 2.067 1.871 2.067.904 0 1.292-.129 1.873-.323.388-.129 1.034-.388 1.355-.388.453 0 .904.195.904 1.163v1.356c0 1.227-.258 2.002-.839 2.454-1.485 1.162-3.486 1.68-6.714 1.68-3.616 0-6.456-2.002-6.456-6.006V20.535h-2.713c-.71 0-1.226-.516-1.226-1.227zM40.743 36.485V16.467c0-.71.518-1.227 1.227-1.227h5.554c.71 0 1.225.517 1.225 1.227v18.791c0 2.97 1.55 4.132 4.005 4.132 2.324 0 5.294-1.162 6.844-2.518V16.467c0-.71.515-1.227 1.225-1.227h5.554c.71 0 1.227.517 1.227 1.227v23.828c0 1.485.451 2.066 1.42 2.066v.775c0 1.614-.904 3.487-4.65 3.487-2.776 0-4.713-1.29-4.713-3.939v-.516c-2.71 2.582-6.004 4.455-10.136 4.455-5.875 0-8.782-3.487-8.782-10.138zm-22.408-24.86c5.745 0 10.007 3.744 10.007 13.882 0 10.203-4.262 13.948-10.007 13.948-5.748 0-10.007-3.745-10.007-13.948 0-10.138 4.26-13.883 10.007-13.883zm0 35.257c9.877 0 18.336-6.199 18.336-21.375 0-15.11-8.459-21.31-18.336-21.31C8.457 4.197 0 10.397 0 25.507c0 15.176 8.457 21.375 18.336 21.375z" fill="#FEFEFE" mask="url(#b)"/></g></svg>