<?xml version="1.0" encoding="UTF-8"?>
<svg width="49px" height="51px" viewBox="0 0 49 51" version="1.1" xmlns="http://www.w3.org/2000/svg" xmlns:xlink="http://www.w3.org/1999/xlink">
    <!-- Generator: Sketch 52.5 (67469) - http://www.bohemiancoding.com/sketch -->
    <title>Icons_gavel</title>
    <desc>Created with Sketch.</desc>
    <defs>
        <polygon id="path-1" points="0 0 53 0 53 55 0 55"></polygon>
    </defs>
    <g id="Symbols" stroke="none" stroke-width="1" fill="none" fill-rule="evenodd">
        <g id="Icons-/-Gavel" transform="translate(1.000000, 1.000000)">
            <g id="Icons_gavel" transform="translate(-3.000000, -3.000000)">
                <mask id="mask-2" fill="white">
                    <use xlink:href="#path-1"></use>
                </mask>
                <g id="Clip-2"></g>
                <path d="M5.12340548,50.0643858 C4.04520376,49.0888361 3.96411714,47.425586 4.9400457,46.3510781 L27.2439715,23.9420092 L29.2494691,25.7565189 L8.86205743,49.8992216 C7.87620971,50.9650233 6.2016714,51.0399674 5.12340548,50.0643858 Z M23.449432,18.8172639 L32.4602554,8.98761988 L43.7406697,19.1937068 L34.7297821,29.0233827 L23.449432,18.8172639 Z M19.2546277,18.1879243 L19.1858678,18.1256409 C18.5425035,17.5435959 18.2916037,16.6289901 18.5466445,15.7955792 C18.6443915,15.4761257 18.8090365,15.1885953 19.0360212,14.9409606 L28.1638842,4.98365643 C28.5698951,4.54081618 29.128128,4.28138183 29.7358604,4.25319007 C30.3435928,4.22496642 30.9237506,4.43152528 31.3695023,4.83482052 L31.4382622,4.89707201 C32.0815944,5.47911705 32.3325263,6.39372281 32.0774855,7.22713375 C31.9797385,7.54658721 31.8150935,7.83411765 31.5880445,8.08175229 L22.4601816,18.0390246 C22.0542349,18.4818967 21.4959699,18.7413311 20.8882375,18.7695228 C20.2805372,18.7977465 19.7003473,18.5911557 19.2546277,18.1879243 Z M47.935474,19.823142 L48.0042339,19.8853616 C48.6475661,20.4674067 48.898466,21.3820124 48.6434572,22.2154234 C48.5457102,22.5348768 48.3810331,22.8224073 48.1540163,23.0700419 L39.0261855,33.0273142 C38.6202066,33.4701864 38.0619737,33.7296207 37.4542413,33.7578125 C36.8465089,33.7860361 36.2663512,33.5794454 35.8205031,33.1760864 L35.7518074,33.1139624 C35.1084752,32.5318855 34.8575754,31.6173116 35.1125841,30.7839007 C35.2103311,30.4644472 35.3749761,30.1769168 35.6020251,29.9292503 L44.7298559,19.9719461 C45.5723414,19.0529074 47.0104252,18.9861593 47.935474,19.823142 Z M9.80087747,50.7324731 C9.80662351,50.7262225 9.81224115,50.7198442 9.81773039,50.7133384 L30.1809701,26.5992421 L34.0309155,30.0825828 C33.9845941,30.1923521 33.9434409,30.3048321 33.9081942,30.4201504 C33.5125839,31.7129212 33.9035717,33.1332566 34.9042499,34.0386139 L34.9729457,34.1007378 C35.6673181,34.7289931 36.5693827,35.0509022 37.5130179,35.0070838 C38.4565888,34.9632654 39.3245303,34.5592366 39.956884,33.8693995 L49.0847469,23.9120954 C49.4385619,23.526117 49.6953362,23.077632 49.8478472,22.5791736 C50.2434253,21.2864028 49.8524697,19.8660675 48.8518556,18.9607421 L48.7830957,18.8985225 C47.6484607,17.8719151 46.0175795,17.7200495 44.7364044,18.4031256 L33.1591862,7.92845162 C33.2055076,7.81865046 33.2465967,7.70617044 33.2819075,7.590884 C33.6774536,6.2981132 33.286498,4.87777788 32.2858839,3.97245244 L32.217124,3.91023284 C31.5227515,3.28200944 30.620719,2.96013225 29.6771159,3.00395067 C28.7334808,3.04773719 27.8655393,3.45176594 27.2331856,4.14163489 L18.1053548,14.0989072 C17.7515077,14.4848856 17.4947655,14.9333705 17.3422225,15.4318289 C16.9466443,16.7246316 17.3375999,18.144935 18.3381819,19.0502286 L18.4069739,19.1124801 C19.1013464,19.7407035 20.003411,20.0625807 20.9470141,20.0187622 C21.4836111,19.9938553 21.995683,19.8522905 22.453922,19.6081001 L26.3125346,23.0991904 L4.03541302,45.4813432 C4.02931386,45.4874025 4.02340732,45.4936532 4.01759707,45.4999995 C3.61479621,45.9393955 3.33266227,46.446337 3.16926919,46.9803858 C2.74364466,48.3715727 3.12365395,49.94658 4.27578382,50.9890054 C5.87026273,52.4316007 8.34876561,52.3165056 9.80087747,50.7324731 Z" id="Fill-1" stroke="#B5CB19" fill="#B5CB19" mask="url(#mask-2)"></path>
            </g>
        </g>
    </g>
</svg>