<?xml version="1.0" encoding="UTF-8"?>
<svg width="252px" height="184px" viewBox="0 0 252 184" version="1.1" xmlns="http://www.w3.org/2000/svg" xmlns:xlink="http://www.w3.org/1999/xlink">
    <!-- Generator: Sketch 52.5 (67469) - http://www.bohemiancoding.com/sketch -->
    <title>Icons_people</title>
    <desc>Created with Sketch.</desc>
    <defs>
        <polygon id="path-1" points="0.449681112 0.3752 99.758 0.3752 99.758 155.6432 0.449681112 155.6432"></polygon>
        <polygon id="path-3" points="0 0.375 99.3083698 0.375 99.3083698 155.6428 0 155.6428"></polygon>
    </defs>
    <g id="Symbols" stroke="none" stroke-width="1" fill="none" fill-rule="evenodd">
        <g id="Icons-/-People" transform="translate(0.000000, -1.000000)">
            <g id="Icons_people">
                <path d="M76.8486,78.3874 C76.8486,93.9084 83.9646,107.9554 95.5986,117.0214 C72.9126,130.2294 67.1216,156.2374 64.8516,176.1434 C64.3746,180.3234 67.3756,184.0974 71.5566,184.5744 C71.8496,184.6084 72.1406,184.6244 72.4286,184.6244 C76.2486,184.6244 79.5426,181.7564 79.9866,177.8704 C83.6136,146.0734 94.2546,130.3914 115.5666,125.4374 C118.9246,124.6574 121.3396,121.7174 121.4536,118.2714 C121.5676,114.8254 119.3526,111.7314 116.0526,110.7314 C101.7146,106.3814 92.0816,93.3834 92.0816,78.3874 C92.0816,59.7514 107.2436,44.5894 125.8786,44.5894 C144.5146,44.5894 159.6766,59.7514 159.6766,78.3874 C159.6766,93.3834 150.0426,106.3814 135.7036,110.7314 C132.4046,111.7324 130.1886,114.8254 130.3016,118.2714 C130.4156,121.7184 132.8316,124.6584 136.1906,125.4384 C157.5046,130.3924 168.1456,146.0744 171.7716,177.8694 C172.2476,182.0494 176.0226,185.0554 180.2026,184.5744 C184.3806,184.0974 187.3836,180.3234 186.9066,176.1444 C184.6366,156.2374 178.8466,130.2294 156.1586,117.0224 C167.7916,107.9554 174.9106,93.9084 174.9106,78.3874 C174.9106,51.3514 152.9136,29.3564 125.8786,29.3564 C98.8436,29.3564 76.8486,51.3514 76.8486,78.3874" id="Fill-1" fill="#B5CB19"></path>
                <g id="Group-5" transform="translate(152.000000, 0.625000)">
                    <mask id="mask-2" fill="white">
                        <use xlink:href="#path-1"></use>
                    </mask>
                    <g id="Clip-4"></g>
                    <path d="M13.6953,26.6472 C20.0893,19.6322 29.1963,15.6082 38.6813,15.6082 C57.3183,15.6082 72.4793,30.7702 72.4793,49.4062 C72.4793,64.4022 62.8453,77.4002 48.5073,81.7492 C45.2073,82.7502 42.9913,85.8432 43.1043,89.2902 C43.2193,92.7362 45.6343,95.6762 48.9933,96.4572 C70.3063,101.4112 80.9483,117.0922 84.5743,148.8892 C85.0163,152.7752 88.3113,155.6432 92.1323,155.6432 C92.4203,155.6432 92.7113,155.6262 93.0043,155.5932 C97.1833,155.1172 100.1853,151.3422 99.7083,147.1632 C97.4383,127.2562 91.6483,101.2492 68.9613,88.0412 C80.5953,78.9742 87.7133,64.9282 87.7133,49.4062 C87.7133,22.3712 65.7173,0.3752 38.6813,0.3752 C24.9223,0.3752 11.7113,6.2112 2.4363,16.3852 C-0.3967,19.4942 -0.1727,24.3122 2.9353,27.1452 C6.0443,29.9792 10.8623,29.7552 13.6953,26.6472" id="Fill-3" fill="#B5CB19" mask="url(#mask-2)"></path>
                </g>
                <g id="Group-8" transform="translate(0.000000, 0.625000)">
                    <mask id="mask-4" fill="white">
                        <use xlink:href="#path-3"></use>
                    </mask>
                    <g id="Clip-7"></g>
                    <path d="M7.6264,155.6428 C11.4464,155.6428 14.7414,152.7748 15.1844,148.8888 C18.8104,117.0918 29.4514,101.4118 50.7654,96.4568 C54.1234,95.6758 56.5394,92.7368 56.6534,89.2898 C56.7664,85.8438 54.5504,82.7498 51.2514,81.7488 C36.9134,77.4008 27.2784,64.4028 27.2784,49.4058 C27.2784,30.7698 42.4404,15.6088 61.0764,15.6088 C70.5614,15.6088 79.6684,19.6318 86.0634,26.6468 C88.8974,29.7568 93.7134,29.9778 96.8224,27.1448 C99.9314,24.3118 100.1544,19.4948 97.3214,16.3858 C88.0474,6.2108 74.8364,0.3748 61.0764,0.3748 C34.0414,0.3748 12.0454,22.3708 12.0454,49.4058 C12.0454,64.9278 19.1634,78.9748 30.7964,88.0408 C8.1094,101.2488 2.3194,127.2558 0.0494,147.1638 C-0.4276,151.3428 2.5754,155.1168 6.7544,155.5938 C7.0474,155.6268 7.3384,155.6428 7.6264,155.6428" id="Fill-6" fill="#B5CB19" mask="url(#mask-4)"></path>
                </g>
            </g>
        </g>
    </g>
</svg>