<?xml version="1.0" encoding="UTF-8"?>
<svg width="107px" height="59px" viewBox="0 0 107 59" version="1.1" xmlns="http://www.w3.org/2000/svg" xmlns:xlink="http://www.w3.org/1999/xlink">
    <!-- Generator: Sketch 52.5 (67469) - http://www.bohemiancoding.com/sketch -->
    <title>Logo / OPEI</title>
    <desc>Created with Sketch.</desc>
    <defs>
        <polygon id="path-1" points="0.000142287234 8.59223301e-05 107 8.59223301e-05 107 59 0.000142287234 59"></polygon>
    </defs>
    <g id="Symbols" stroke="none" stroke-width="1" fill="none" fill-rule="evenodd">
        <g id="Components-/-Masthead" transform="translate(-135.000000, -58.000000)">
            <g id="Masthead">
                <g id="Logo-/-OPEI-/-Icon-/-White" transform="translate(135.000000, 58.000000)">
                    <g id="Group-3">
                        <mask id="mask-2" fill="white">
                            <use xlink:href="#path-1"></use>
                        </mask>
                        <g id="Clip-2"></g>
                        <path d="M98.2676902,36.9670228 C92.4982274,38.4050762 85.507371,39.9198869 79.0455386,41.1308189 L79.0455386,36.6725956 C80.6180971,36.3526782 83.5381157,35.7486442 86.3744694,35.1543481 L86.4757779,35.1331539 L86.4757779,23.8985228 L86.3750386,23.8770422 C83.6092593,23.2778772 80.6878178,22.6583772 79.0455386,22.3224209 L79.0455386,17.8742218 C85.5398125,19.0928869 92.5298152,20.6059791 98.2676902,22.0328626 L98.2676902,26.5148578 C96.5451609,26.1161782 93.528387,25.4391102 90.9925439,24.8826199 L90.8374508,24.8485374 L90.8374508,34.215217 L90.991121,34.1825665 C93.3200785,33.6899451 96.2181848,33.0681539 98.2676902,32.6190665 L98.2676902,36.9670228 Z M74.7908657,41.8966733 C68.6056396,42.962683 61.4423311,44.010649 55.5704215,44.7063335 L55.5704215,14.294984 C61.5769348,15.0069937 68.5663684,16.0300422 74.7908657,17.1057898 L74.7908657,21.458615 C70.5743258,20.7915714 63.344996,19.7224112 60.0763737,19.2833481 L59.9315253,19.2632995 L59.9315253,26.8860422 L68.5307965,26.8860422 L68.5307965,31.2752413 L59.9315253,31.2752413 L59.9315253,39.738018 L60.0763737,39.717683 C63.3836981,39.2740374 70.6121742,38.2031587 74.7908657,37.5386927 L74.7908657,41.8966733 Z M46.9540758,25.7312461 C46.9540758,26.3719403 46.4358657,26.8923432 45.7992726,26.8923432 L36.4547008,26.8923432 L36.4547008,20.851717 L36.5619854,20.8342461 C39.0207088,20.4355665 41.287629,20.083285 42.7833524,19.8664743 C43.7432221,19.7261345 44.6993923,19.5906636 45.645887,19.4603481 C45.9794082,19.4150956 46.3083763,19.5153383 46.5582327,19.7347267 C46.809512,19.9566927 46.9540758,20.2763238 46.9540758,20.6122801 L46.9540758,25.7312461 Z M50.0550838,15.7430617 C49.2542912,15.0359209 48.1928285,14.7074112 47.1322194,14.847751 C44.9728684,15.1284306 43.2990013,15.3566976 42.1564348,15.5222413 L42.157004,15.5222413 C40.4270758,15.7768578 38.5582753,16.0652704 36.6032487,16.3823238 L36.4547008,16.4060956 L36.4547008,16.4023723 L36.0969907,16.4599403 C34.8972247,16.6569888 33.3434481,16.9176199 32.0947354,17.133285 L32.0947354,41.8666005 C33.3255199,42.0785422 35.286238,42.402183 36.4547008,42.5937898 L36.4547008,31.2815422 L47.604613,31.2815422 C49.6512726,31.2815422 51.3157487,29.6066296 51.3157487,27.5479306 L51.3157487,18.5464209 C51.3157487,17.473251 50.8564455,16.4513481 50.0550838,15.7430617 Z M23.5529481,34.3595665 C23.5529481,34.7456442 23.3819189,35.10795 23.0819774,35.3536879 C22.8500492,35.544149 22.5651902,35.6443917 22.2735013,35.6443917 C22.188129,35.6443917 22.1019029,35.6357995 22.016246,35.6180422 C19.2063577,35.0389257 16.4371636,34.4297364 13.7849295,33.8079451 C13.2086662,33.6710422 12.8054242,33.1569403 12.8054242,32.5566296 L12.8054242,26.4421102 C12.8054242,25.8415131 13.2086662,25.3276976 13.7854987,25.1910811 C16.4641981,24.5627024 19.2333923,23.9523675 22.0170997,23.3781199 C22.3913152,23.2953481 22.7814668,23.3944451 23.0819774,23.640183 C23.3810652,23.8859209 23.5529481,24.2482267 23.5529481,24.63545 L23.5529481,34.3595665 Z M26.1829854,19.850149 C25.4467912,19.244683 24.5378604,18.9236199 23.6041715,18.9236199 C23.3326875,18.9236199 23.0583577,18.9499694 22.7865891,19.0052461 C19.0031715,19.7722461 15.3122407,20.5822073 11.8156742,21.412217 C9.97646941,21.8498481 8.69190027,23.4858092 8.69190027,25.3915665 L8.69190027,33.6083189 C8.69190027,35.5155083 9.97504654,37.1503238 11.813113,37.5850908 C15.2854907,38.4087995 18.9812593,39.2187607 22.7976875,39.9934937 C24.0037141,40.2343626 25.2350678,39.9296248 26.1824162,39.1485908 C27.125496,38.3724257 27.6656184,37.2230714 27.6656184,35.9966733 L27.6656184,23.0006345 C27.6656184,21.7745228 27.125496,20.6260277 26.1829854,19.850149 Z M103.809209,40.0762655 C82.0281636,49.9819646 60.1882114,54.5052024 53.5001423,55.7379015 C36.7794003,52.6650325 18.0805811,46.8403578 3.19079122,40.0751199 L3.19079122,18.9236199 C24.972121,9.01792087 46.8117886,4.49468301 53.5001423,3.26227039 C70.2205997,6.33513932 88.9194189,12.1598141 103.809209,18.9247655 L103.809209,40.0762655 Z M106.070153,16.4338772 C90.721629,9.34270728 71.1756316,3.21959563 53.7844322,0.0513529126 L53.5001423,8.59223301e-05 L53.2158524,0.0513529126 C46.7008045,1.23851311 23.6744614,5.92643544 0.929847074,16.4338772 L0.000142287234,16.8626296 L0.000142287234,42.1375422 L0.929847074,42.5662947 C16.278371,49.6574646 35.8243684,55.7805762 53.2158524,58.9485325 L53.5001423,59.0000859 L53.7844322,58.9485325 C60.2991955,57.7613723 83.3255386,53.07345 106.070153,42.5662947 L107.000142,42.1375422 L107.000142,16.8626296 L106.070153,16.4338772 Z" id="Fill-1" fill="#FFFFFF" mask="url(#mask-2)"></path>
                    </g>
                </g>
            </g>
        </g>
    </g>
</svg>