<?xml version="1.0" encoding="UTF-8"?>
<svg width="273px" height="206px" viewBox="0 0 273 206" version="1.1" xmlns="http://www.w3.org/2000/svg" xmlns:xlink="http://www.w3.org/1999/xlink">
    <!-- Generator: Sketch 52.5 (67469) - http://www.bohemiancoding.com/sketch -->
    <title>Group 3</title>
    <desc>Created with Sketch.</desc>
    <defs>
        <polygon id="path-1" points="0.0004 0.0003 273 0.0003 273 206 0.0004 206"></polygon>
    </defs>
    <g id="Symbols" stroke="none" stroke-width="1" fill="none" fill-rule="evenodd">
        <g id="Logo-/-OPEI-/-Type-lockup-/-White">
            <g id="Group-3">
                <mask id="mask-2" fill="white">
                    <use xlink:href="#path-1"></use>
                </mask>
                <g id="Clip-2"></g>
                <path d="M173.3374,21.3433 C177.5974,21.3433 180.3744,24.1213 180.3744,30.7073 C180.3744,37.2933 177.5974,40.0713 173.3374,40.0713 C169.0124,40.0713 166.2344,37.2933 166.2344,30.7073 C166.2344,24.1213 169.0124,21.3433 173.3374,21.3433 Z M173.3374,46.8513 C182.3134,46.8513 188.3814,41.0383 188.3814,30.7073 C188.3814,20.3753 182.3134,14.5633 173.3374,14.5633 C164.2984,14.5633 158.2294,20.3753 158.2294,30.7073 C158.2294,41.0383 164.2984,46.8513 173.3374,46.8513 Z M199.0194,186.7563 L187.2684,186.7563 C187.6544,182.0423 189.3994,179.2653 193.7254,179.2653 C196.8224,179.2653 199.1494,181.2033 199.1494,184.8193 C199.1494,185.3993 199.0844,186.0463 199.0194,186.7563 Z M206.3144,186.5623 C206.3144,177.8443 201.4074,173.7123 193.5954,173.7123 C184.2334,173.7123 179.1974,180.4273 179.1974,189.8553 C179.1974,199.2843 183.8454,206.0003 194.0474,206.0003 C199.3424,206.0003 202.7624,204.5143 204.9594,203.0293 C205.7334,202.5113 205.9914,201.5443 205.9914,200.3173 L205.9914,198.8963 C205.9914,197.9923 205.6054,197.4753 204.8944,197.4753 C204.4434,197.4753 203.4744,197.8633 202.6344,198.2513 C201.4734,198.7673 199.2774,199.6713 196.3074,199.6713 C190.1734,199.6713 187.1384,196.9593 187.1384,191.2123 L205.9284,191.2123 C206.2494,189.7263 206.3144,187.8543 206.3144,186.5623 Z M177.1264,200.3173 L177.1264,201.6733 C177.1264,202.9003 176.8684,203.6753 176.2884,204.1273 C174.8034,205.2893 172.8014,205.8053 169.5744,205.8053 C165.9574,205.8053 163.1174,203.8033 163.1174,199.8013 L163.1174,179.6533 L160.4054,179.6533 C159.6964,179.6533 159.1784,179.1363 159.1784,178.4263 L159.1784,175.5853 C159.1784,174.8743 159.6964,174.3583 160.4054,174.3583 L163.1174,174.3583 L163.1174,168.0933 C163.1174,167.3843 163.6334,166.8673 164.3444,166.8673 L169.8964,166.8673 C170.6084,166.8673 171.1234,167.3843 171.1234,168.0933 L171.1234,174.3583 L175.7724,174.3583 C176.4834,174.3583 176.9994,174.8743 176.9994,175.5853 L176.9994,178.4263 C176.9994,179.1363 176.4834,179.6533 175.7724,179.6533 L171.1234,179.6533 L171.1234,197.7993 C171.1234,199.1543 171.7044,199.8653 172.9944,199.8653 C173.8994,199.8653 174.2864,199.7353 174.8684,199.5413 C175.2564,199.4123 175.9014,199.1543 176.2254,199.1543 C176.6764,199.1543 177.1264,199.3483 177.1264,200.3173 Z M157.0454,201.4793 L157.0454,202.2543 C157.0454,203.8683 156.1414,205.7403 152.3944,205.7403 C149.6194,205.7403 147.6824,204.4493 147.6824,201.8023 L147.6824,201.2863 C144.9724,203.8683 141.6784,205.7403 137.5464,205.7403 C131.6714,205.7403 128.7644,202.2543 128.7644,195.6023 L128.7644,175.5853 C128.7644,174.8743 129.2824,174.3583 129.9914,174.3583 L135.5454,174.3583 C136.2544,174.3583 136.7704,174.8743 136.7704,175.5853 L136.7704,194.3763 C136.7704,197.3463 138.3204,198.5093 140.7744,198.5093 C143.0984,198.5093 146.0684,197.3463 147.6194,195.9903 L147.6194,175.5853 C147.6194,174.8743 148.1344,174.3583 148.8434,174.3583 L154.3984,174.3583 C155.1074,174.3583 155.6254,174.8743 155.6254,175.5853 L155.6254,199.4123 C155.6254,200.8983 156.0764,201.4793 157.0454,201.4793 Z M125.1454,200.3173 L125.1454,201.6733 C125.1454,202.9003 124.8874,203.6753 124.3064,204.1273 C122.8214,205.2893 120.8204,205.8053 117.5924,205.8053 C113.9764,205.8053 111.1364,203.8033 111.1364,199.8013 L111.1364,179.6533 L108.4244,179.6533 C107.7134,179.6533 107.1974,179.1363 107.1974,178.4263 L107.1974,175.5853 C107.1974,174.8743 107.7134,174.3583 108.4244,174.3583 L111.1364,174.3583 L111.1364,168.0933 C111.1364,167.3843 111.6524,166.8673 112.3634,166.8673 L117.9154,166.8673 C118.6274,166.8673 119.1434,167.3843 119.1434,168.0933 L119.1434,174.3583 L123.7904,174.3583 C124.5024,174.3583 125.0174,174.8743 125.0174,175.5853 L125.0174,178.4263 C125.0174,179.1363 124.5024,179.6533 123.7904,179.6533 L119.1434,179.6533 L119.1434,197.7993 C119.1434,199.1543 119.7234,199.8653 121.0134,199.8653 C121.9184,199.8653 122.3054,199.7353 122.8864,199.5413 C123.2744,199.4123 123.9204,199.1543 124.2414,199.1543 C124.6944,199.1543 125.1454,199.3483 125.1454,200.3173 Z M102.8054,165.4463 C102.8054,167.7073 100.9324,169.5793 98.6734,169.5793 C96.4154,169.5793 94.5414,167.7073 94.5414,165.4463 C94.5414,163.1863 96.4154,161.3133 98.6734,161.3133 C100.9324,161.3133 102.8054,163.1863 102.8054,165.4463 Z M102.6754,175.5853 L102.6754,204.1273 C102.6754,204.8383 102.1594,205.3533 101.4504,205.3533 L95.8964,205.3533 C95.1884,205.3533 94.6714,204.8383 94.6714,204.1273 L94.6714,175.5853 C94.6714,174.8743 95.1884,174.3583 95.8964,174.3583 L101.4504,174.3583 C102.1594,174.3583 102.6754,174.8743 102.6754,175.5853 Z M90.4124,200.3173 L90.4124,201.6733 C90.4124,202.9003 90.1544,203.6753 89.5734,204.1273 C88.0884,205.2893 86.0874,205.8053 82.8594,205.8053 C79.2434,205.8053 76.4024,203.8033 76.4024,199.8013 L76.4024,179.6533 L73.6914,179.6533 C72.9814,179.6533 72.4634,179.1363 72.4634,178.4263 L72.4634,175.5853 C72.4634,174.8743 72.9814,174.3583 73.6914,174.3583 L76.4024,174.3583 L76.4024,168.0933 C76.4024,167.3843 76.9194,166.8673 77.6294,166.8673 L83.1824,166.8673 C83.8934,166.8673 84.4094,167.3843 84.4094,168.0933 L84.4094,174.3583 L89.0574,174.3583 C89.7684,174.3583 90.2844,174.8743 90.2844,175.5853 L90.2844,178.4263 C90.2844,179.1363 89.7684,179.6533 89.0574,179.6533 L84.4094,179.6533 L84.4094,197.7993 C84.4094,199.1543 84.9904,199.8653 86.2794,199.8653 C87.1844,199.8653 87.5714,199.7353 88.1534,199.5413 C88.5414,199.4123 89.1874,199.1543 89.5104,199.1543 C89.9624,199.1543 90.4124,199.3483 90.4124,200.3173 Z M70.4474,195.9903 C70.4474,202.7713 65.0234,206.0003 59.0204,206.0003 C54.3074,206.0003 51.1414,204.5793 49.6574,203.6753 C48.4294,202.9643 48.0444,202.2543 48.0444,201.2213 L48.0444,197.9933 C48.0444,197.0233 48.4294,196.5723 49.1414,196.5723 C49.5944,196.5723 49.9794,196.7013 50.5614,197.0233 C52.1114,197.8633 54.8884,199.4783 58.0514,199.4783 C60.3104,199.4783 62.5704,198.9603 62.5704,196.3123 C62.5704,193.9893 61.0864,193.0203 57.8584,192.3753 C53.0804,191.4053 48.4944,189.2743 48.4944,183.2693 C48.4944,177.0053 53.6614,173.7123 59.2784,173.7123 C63.6034,173.7123 66.3804,175.0053 67.8004,175.8433 C69.0274,176.6183 69.4794,177.2633 69.4794,178.2973 L69.4794,181.3963 C69.4794,182.3653 69.0904,182.8173 68.3164,182.8173 C67.8654,182.8173 67.4774,182.6883 66.9614,182.3653 C65.4764,181.4613 63.7334,179.9113 60.2454,179.9113 C57.9864,179.9113 56.2434,180.6223 56.2434,182.9463 C56.2434,184.8183 57.7284,185.8513 60.5684,186.4333 C66.2504,187.5953 70.4474,189.7263 70.4474,195.9903 Z M43.2594,184.1093 L43.2594,204.1273 C43.2594,204.8383 42.7414,205.3543 42.0324,205.3543 L36.4794,205.3543 C35.7694,205.3543 35.2534,204.8383 35.2534,204.1273 L35.2534,185.3363 C35.2534,182.3653 33.7024,181.2033 31.2484,181.2033 C27.6344,181.2033 24.4064,182.7533 24.4064,182.7533 L24.4064,204.1273 C24.4064,204.8383 23.8884,205.3543 23.1794,205.3543 L17.6254,205.3543 C16.9164,205.3543 16.4004,204.8383 16.4004,204.1273 L16.4004,175.5863 C16.4004,174.8743 16.9164,174.3573 17.6254,174.3573 L20.7904,174.3573 C22.9844,174.3573 24.3414,175.9083 24.3414,177.5873 C26.0204,176.2293 29.1194,173.9703 34.1534,173.9703 C40.3524,173.9703 43.2594,177.4583 43.2594,184.1093 Z M10.3954,165.1883 L10.3954,204.1273 C10.3954,204.8383 9.8774,205.3533 9.1684,205.3533 L3.4854,205.3533 C2.7754,205.3533 2.2584,204.8383 2.2584,204.1273 L2.2584,165.1883 C2.2584,164.4783 2.7754,163.9613 3.4854,163.9613 L9.1684,163.9613 C9.8774,163.9613 10.3954,164.4783 10.3954,165.1883 Z M273.0004,142.9073 L273.0004,144.2633 C273.0004,145.4913 272.7424,146.2653 272.1614,146.7183 C270.6764,147.8803 268.6744,148.3963 265.4474,148.3963 C261.8314,148.3963 258.9914,146.3953 258.9914,142.3913 L258.9914,122.2443 L256.2784,122.2443 C255.5674,122.2443 255.0514,121.7273 255.0514,121.0163 L255.0514,118.1763 C255.0514,117.4663 255.5674,116.9493 256.2784,116.9493 L258.9914,116.9493 L258.9914,110.6843 C258.9914,109.9743 259.5074,109.4583 260.2174,109.4583 L265.7704,109.4583 C266.4814,109.4583 266.9974,109.9743 266.9974,110.6843 L266.9974,116.9493 L271.6454,116.9493 C272.3564,116.9493 272.8724,117.4663 272.8724,118.1763 L272.8724,121.0163 C272.8724,121.7273 272.3564,122.2443 271.6454,122.2443 L266.9974,122.2443 L266.9974,140.3893 C266.9974,141.7453 267.5784,142.4553 268.8684,142.4553 C269.7724,142.4553 270.1594,142.3273 270.7414,142.1333 C271.1294,142.0043 271.7754,141.7453 272.0964,141.7453 C272.5494,141.7453 273.0004,141.9393 273.0004,142.9073 Z M251.8844,126.6993 L251.8844,146.7173 C251.8844,147.4273 251.3664,147.9453 250.6574,147.9453 L245.1054,147.9453 C244.3944,147.9453 243.8784,147.4273 243.8784,146.7173 L243.8784,127.9263 C243.8784,124.9563 242.3274,123.7943 239.8744,123.7943 C236.2594,123.7943 233.0294,125.3433 233.0294,125.3433 L233.0294,146.7173 C233.0294,147.4273 232.5134,147.9453 231.8054,147.9453 L226.2504,147.9453 C225.5414,147.9453 225.0254,147.4273 225.0254,146.7173 L225.0254,118.1763 C225.0254,117.4663 225.5414,116.9493 226.2504,116.9493 L229.4154,116.9493 C231.6094,116.9493 232.9664,118.4983 232.9664,120.1773 C234.6454,118.8213 237.7444,116.5613 242.7784,116.5613 C248.9774,116.5613 251.8844,120.0493 251.8844,126.6993 Z M213.1384,129.3463 L201.3884,129.3463 C201.7744,124.6333 203.5194,121.8563 207.8444,121.8563 C210.9414,121.8563 213.2664,123.7943 213.2664,127.4103 C213.2664,127.9903 213.2034,128.6363 213.1384,129.3463 Z M220.4344,129.1533 C220.4344,120.4353 215.5274,116.3023 207.7144,116.3023 C198.3534,116.3023 193.3164,123.0183 193.3164,132.4473 C193.3164,141.8753 197.9654,148.5913 208.1674,148.5913 C213.4624,148.5913 216.8824,147.1053 219.0794,145.6203 C219.8524,145.1033 220.1104,144.1353 220.1104,142.9083 L220.1104,141.4873 C220.1104,140.5833 219.7244,140.0663 219.0134,140.0663 C218.5624,140.0663 217.5934,140.4543 216.7544,140.8413 C215.5924,141.3583 213.3974,142.2623 210.4264,142.2623 C204.2934,142.2623 201.2574,139.5503 201.2574,133.8023 L220.0474,133.8023 C220.3684,132.3173 220.4344,130.4453 220.4344,129.1533 Z M177.5564,123.7943 C174.7784,123.7943 171.2274,125.3433 171.2274,125.3433 L171.2274,146.7173 C171.2274,147.4273 170.7114,147.9453 170.0034,147.9453 L164.4484,147.9453 C163.7394,147.9453 163.2234,147.4273 163.2234,146.7173 L163.2234,127.7323 C163.2234,124.9563 161.8014,123.7943 159.4764,123.7943 C156.7644,123.7943 153.2144,125.3433 153.2144,125.3433 L153.2144,146.7173 C153.2144,147.4273 152.6984,147.9453 151.9884,147.9453 L146.4344,147.9453 C145.7264,147.9453 145.2094,147.4273 145.2094,146.7173 L145.2094,118.1763 C145.2094,117.4663 145.7264,116.9493 146.4344,116.9493 L149.5994,116.9493 C151.7944,116.9493 153.1514,118.4983 153.1514,120.1773 C154.7644,118.9503 158.0574,116.5613 162.6424,116.5613 C166.3864,116.5613 168.9684,118.2403 170.0654,120.6303 C171.8114,118.8853 176.0704,116.5613 180.6554,116.5613 C186.4004,116.5613 189.2404,120.0493 189.2404,126.5703 L189.2404,146.7173 C189.2404,147.4273 188.7254,147.9453 188.0154,147.9453 L182.4624,147.9453 C181.7534,147.9453 181.2364,147.4273 181.2364,146.7173 L181.2364,127.7323 C181.2364,124.9563 179.8154,123.7943 177.5564,123.7943 Z M125.6394,141.8103 C122.4774,141.8103 120.2174,140.0023 119.0554,138.2593 L119.0554,126.6353 C120.2174,124.8913 122.4774,123.0833 125.6394,123.0833 C129.7064,123.0833 132.2264,125.6013 132.2264,132.4473 C132.2264,139.2923 129.7064,141.8103 125.6394,141.8103 Z M140.2324,132.4473 C140.2324,121.9863 135.1314,116.4973 127.5124,116.4973 C122.9924,116.4973 120.4104,118.3693 118.9904,120.2433 C118.9904,118.4343 117.6334,116.9493 115.4394,116.9493 L112.2744,116.9493 C111.5654,116.9493 111.0494,117.4663 111.0494,118.1763 L111.0494,160.6663 C111.0494,161.3773 111.5654,161.8923 112.2744,161.8923 L117.8284,161.8923 C118.5374,161.8923 119.0554,161.3773 119.0554,160.6663 L119.0554,144.5873 C120.3454,146.3303 122.9924,148.3973 127.5124,148.3973 C135.1314,148.3973 140.2324,142.9083 140.2324,132.4473 Z M104.7834,108.0373 C104.7834,110.2983 102.9114,112.1703 100.6514,112.1703 C98.3934,112.1703 96.5194,110.2983 96.5194,108.0373 C96.5194,105.7783 98.3934,103.9043 100.6514,103.9043 C102.9114,103.9043 104.7834,105.7783 104.7834,108.0373 Z M104.6554,118.1763 L104.6554,146.7183 C104.6554,147.4273 104.1384,147.9443 103.4284,147.9443 L97.8744,147.9443 C97.1664,147.9443 96.6494,147.4273 96.6494,146.7183 L96.6494,118.1763 C96.6494,117.4663 97.1664,116.9493 97.8744,116.9493 L103.4284,116.9493 C104.1384,116.9493 104.6554,117.4663 104.6554,118.1763 Z M91.4794,144.0703 L91.4794,144.8443 C91.4794,146.4593 90.5754,148.3323 86.8284,148.3323 C84.0534,148.3323 82.1154,147.0403 82.1154,144.3933 L82.1154,143.8773 C79.4054,146.4593 76.1124,148.3323 71.9804,148.3323 C66.1054,148.3323 63.2004,144.8443 63.2004,138.1933 L63.2004,118.1763 C63.2004,117.4663 63.7164,116.9493 64.4244,116.9493 L69.9794,116.9493 C70.6884,116.9493 71.2044,117.4663 71.2044,118.1763 L71.2044,136.9673 C71.2044,139.9373 72.7544,141.0993 75.2084,141.0993 C77.5324,141.0993 80.5034,139.9373 82.0524,138.5813 L82.0524,118.1763 C82.0524,117.4663 82.5684,116.9493 83.2774,116.9493 L88.8324,116.9493 C89.5414,116.9493 90.0564,117.4663 90.0564,118.1763 L90.0564,142.0043 C90.0564,143.4893 90.5104,144.0703 91.4794,144.0703 Z M42.9834,141.8103 C38.9144,141.8103 36.3984,139.2923 36.3984,132.4473 C36.3984,125.6013 38.9144,123.0833 42.9834,123.0833 C46.1474,123.0833 48.4054,124.8913 49.5684,126.6353 L49.5684,138.2593 C48.4054,140.0023 46.1474,141.8103 42.9834,141.8103 Z M50.7954,161.8923 L56.3474,161.8923 C57.0584,161.8923 57.5744,161.3773 57.5744,160.6663 L57.5744,118.1763 C57.5744,117.4663 57.0584,116.9493 56.3474,116.9493 L53.1844,116.9493 C50.9904,116.9493 49.6324,118.4343 49.6324,120.2433 C48.2124,118.3693 45.6304,116.4973 41.1104,116.4973 C33.4924,116.4973 28.3914,121.9863 28.3914,132.4473 C28.3914,142.9083 33.4924,148.3973 41.1104,148.3973 C45.6304,148.3973 48.2774,146.3303 49.5684,144.5873 L49.5684,160.6663 C49.5684,161.3773 50.0864,161.8923 50.7954,161.8923 Z M10.3954,113.6553 L10.3954,122.6313 L21.3064,122.6313 C22.0154,122.6313 22.5314,123.1483 22.5314,123.8583 L22.5314,128.5093 C22.5314,129.2183 22.0154,129.7343 21.3064,129.7343 L10.3954,129.7343 L10.3954,140.8423 L24.8574,140.8423 C25.5664,140.8423 26.0824,141.3583 26.0824,142.0683 L26.0824,146.7183 C26.0824,147.4273 25.5664,147.9453 24.8574,147.9453 L3.4854,147.9453 C2.7754,147.9453 2.2584,147.4273 2.2584,146.7183 L2.2584,107.7793 C2.2584,107.0693 2.7754,106.5513 3.4854,106.5513 L24.3394,106.5513 C25.0504,106.5513 25.5664,107.0693 25.5664,107.7793 L25.5664,112.4283 C25.5664,113.1383 25.0504,113.6553 24.3394,113.6553 L10.3954,113.6553 Z M156.5264,65.9663 C158.3354,65.9663 160.3354,66.8693 160.3354,68.2893 L160.3354,74.3603 C160.3354,75.0703 159.8854,75.5223 159.1734,75.5223 C158.7224,75.5223 158.3354,75.3283 157.9464,75.0703 C157.0434,74.4893 156.2034,73.9073 154.5254,73.9073 C152.0064,73.9073 149.8784,75.1993 148.7134,76.1683 L148.7134,95.8633 C148.7134,96.5743 148.1974,97.0913 147.4884,97.0913 L141.9344,97.0913 C141.2254,97.0913 140.7094,96.5743 140.7094,95.8633 L140.7094,67.3213 C140.7094,66.6113 141.2254,66.0943 141.9344,66.0943 L145.0994,66.0943 C147.2934,66.0943 148.6504,67.6443 148.6504,69.3233 L148.6504,69.7753 C150.4584,67.7093 153.4914,65.9663 156.5264,65.9663 Z M122.8844,71.0023 C125.9824,71.0023 128.3084,72.9403 128.3084,76.5553 C128.3084,77.1363 128.2434,77.7823 128.1784,78.4923 L116.4274,78.4923 C116.8144,73.7793 118.5584,71.0023 122.8844,71.0023 Z M108.3574,81.5933 C108.3574,91.0203 113.0054,97.7373 123.2074,97.7373 C128.5014,97.7373 131.9214,96.2513 134.1184,94.7663 C134.8924,94.2493 135.1504,93.2813 135.1504,92.0533 L135.1504,90.6333 C135.1504,89.7293 134.7644,89.2123 134.0534,89.2123 C133.6024,89.2123 132.6334,89.6003 131.7944,89.9873 C130.6324,90.5043 128.4364,91.4073 125.4664,91.4073 C119.3334,91.4073 116.2974,88.6963 116.2974,82.9483 L135.0874,82.9483 C135.4084,81.4633 135.4734,79.5913 135.4734,78.2993 C135.4734,69.5813 130.5674,65.4483 122.7544,65.4483 C113.3924,65.4483 108.3574,72.1643 108.3574,81.5933 Z M106.9284,67.2573 C106.9284,68.0313 106.6704,68.9363 106.4124,69.7753 L97.9544,95.9283 C97.6964,96.6383 97.3734,97.0913 96.6624,97.0913 L91.7564,97.0913 C91.0454,97.0913 90.6574,96.7033 90.4644,95.9283 L86.8484,83.9823 C86.2024,81.7213 85.3004,78.1703 85.3004,77.6543 C85.3004,77.1363 85.3004,76.9433 85.0404,76.9433 C84.7824,76.9433 84.7824,77.1363 84.7824,77.6543 C84.7824,78.1703 83.8784,81.7213 83.2344,83.9823 L79.6184,95.9283 C79.3604,96.7033 79.0374,97.0913 78.3264,97.0913 L73.4204,97.0913 C72.7094,97.0913 72.3864,96.6383 72.1284,95.9283 L63.6704,69.7753 C63.4124,69.0003 63.1544,68.0313 63.1544,67.2573 C63.1544,66.6113 63.6054,66.0943 64.2514,66.0943 L69.4814,66.0943 C70.2564,66.0943 70.7084,66.4183 70.9654,67.1933 L74.9704,81.3993 C75.5504,83.4003 76.2594,86.2423 76.2594,86.7593 C76.2594,87.2753 76.2594,87.4683 76.5184,87.4683 C76.7764,87.4683 76.7764,87.2753 76.7764,86.7593 C76.7764,86.2423 77.3574,83.4003 77.9384,81.3993 L81.9424,67.1933 C82.1354,66.4183 82.6534,66.0943 83.4274,66.0943 L86.6554,66.0943 C87.4294,66.0943 87.9474,66.4183 88.1404,67.1933 L92.2074,81.3993 C92.7894,83.4003 93.3044,86.2423 93.3044,86.7593 C93.3044,87.2753 93.3044,87.4683 93.5654,87.4683 C93.8224,87.4683 93.8224,87.2753 93.8224,86.7593 C93.8224,86.2423 94.5964,83.4003 95.1774,81.3993 L99.1164,67.1933 C99.3094,66.3523 99.8254,66.0943 100.6014,66.0943 L105.8304,66.0943 C106.4774,66.0943 106.9284,66.6113 106.9284,67.2573 Z M46.6844,90.9563 C42.3594,90.9563 39.5824,88.1793 39.5824,81.5933 C39.5824,75.0063 42.3594,72.2293 46.6844,72.2293 C50.9444,72.2293 53.7214,75.0063 53.7214,81.5933 C53.7214,88.1793 50.9444,90.9563 46.6844,90.9563 Z M46.6844,65.4483 C37.6464,65.4483 31.5764,71.2603 31.5764,81.5933 C31.5764,91.9253 37.6464,97.7373 46.6844,97.7373 C55.6604,97.7373 61.7284,91.9253 61.7284,81.5933 C61.7284,71.2603 55.6604,65.4483 46.6844,65.4483 Z M10.3954,62.1563 L14.5274,62.1563 C19.4984,62.1563 21.4344,64.4803 21.4344,68.9363 C21.4344,73.4553 19.3684,75.7163 14.6544,75.7163 L10.3954,75.7163 L10.3954,62.1563 Z M3.4854,97.0903 L9.1684,97.0903 C9.8774,97.0903 10.3954,96.5743 10.3954,95.8633 L10.3954,82.1743 L16.6564,82.1743 C24.4694,82.1743 29.6334,77.3313 29.6334,68.9363 C29.6334,60.0893 24.7274,55.6973 16.5284,55.6973 L3.4854,55.6973 C2.7754,55.6973 2.2584,56.2153 2.2584,56.9253 L2.2584,95.8633 C2.2584,96.5743 2.7754,97.0903 3.4854,97.0903 Z M192.3044,45.0093 L192.3044,16.4673 C192.3044,15.7583 192.8204,15.2393 193.5294,15.2393 L196.6944,15.2393 C198.8884,15.2393 200.2464,16.7893 200.2464,18.4683 L200.2464,18.9213 C202.0534,16.8543 205.0874,15.1113 208.1224,15.1113 C209.9304,15.1113 211.9304,16.0153 211.9304,17.4353 L211.9304,23.5053 C211.9304,24.2163 211.4804,24.6683 210.7684,24.6683 C210.3174,24.6683 209.9304,24.4743 209.5424,24.2163 C208.6384,23.6353 207.7984,23.0533 206.1204,23.0533 C203.6014,23.0533 201.4734,24.3443 200.3104,25.3143 L200.3104,45.0093 C200.3104,45.7193 199.7924,46.2363 199.0834,46.2363 L193.5294,46.2363 C192.8204,46.2363 192.3044,45.7193 192.3044,45.0093 Z M139.6084,21.3743 C143.8674,21.3743 146.6454,24.1523 146.6454,30.7383 C146.6454,37.3243 143.8674,40.1023 139.6084,40.1023 C135.2824,40.1023 132.5054,37.3243 132.5054,30.7383 C132.5054,24.1523 135.2824,21.3743 139.6084,21.3743 Z M139.6084,46.8823 C148.5834,46.8823 154.6504,41.0703 154.6504,30.7383 C154.6504,20.4063 148.5834,14.5943 139.6084,14.5943 C130.5694,14.5943 124.4994,20.4063 124.4994,30.7383 C124.4994,41.0703 130.5694,46.8823 139.6084,46.8823 Z M105.8334,21.3743 C108.9334,21.3743 111.1924,23.1833 112.3544,24.9263 L112.3544,36.5503 C111.1924,38.2933 108.9334,40.1023 105.8334,40.1023 C101.7014,40.1023 99.1834,37.5833 99.1834,30.7383 C99.1834,23.8933 101.7014,21.3743 105.8334,21.3743 Z M103.8974,46.6883 C108.4174,46.6883 111.0644,44.8163 112.4844,43.0723 C112.7424,45.3973 114.3584,46.6233 117.1324,46.6233 C120.8764,46.6233 121.7804,44.7513 121.7804,43.1363 L121.7804,42.3613 C120.8134,42.3613 120.3604,41.7803 120.3604,40.2953 L120.3604,1.2283 C120.3604,0.5173 119.8444,0.0003 119.1334,0.0003 L113.5814,0.0003 C112.8724,0.0003 112.3544,0.5173 112.3544,1.2283 L112.3544,18.5983 C111.0644,16.8553 108.4174,14.7883 103.8974,14.7883 C96.2784,14.7883 91.1774,20.2773 91.1774,30.7383 C91.1774,41.1993 96.2784,46.6883 103.8974,46.6883 Z M71.0964,19.3083 L71.0964,16.4683 C71.0964,15.7583 71.6114,15.2403 72.3224,15.2403 L75.0354,15.2403 L75.0354,8.9763 C75.0354,8.2663 75.5514,7.7493 76.2624,7.7493 L81.8144,7.7493 C82.5254,7.7493 83.0414,8.2663 83.0414,8.9763 L83.0414,15.2403 L87.6894,15.2403 C88.4004,15.2403 88.9164,15.7583 88.9164,16.4683 L88.9164,19.3083 C88.9164,20.0193 88.4004,20.5353 87.6894,20.5353 L83.0414,20.5353 L83.0414,38.6803 C83.0414,40.0363 83.6224,40.7473 84.9124,40.7473 C85.8164,40.7473 86.2044,40.6183 86.7854,40.4243 C87.1734,40.2953 87.8194,40.0363 88.1404,40.0363 C88.5934,40.0363 89.0444,40.2313 89.0444,41.1993 L89.0444,42.5553 C89.0444,43.7823 88.7864,44.5573 88.2054,45.0093 C86.7204,46.1713 84.7194,46.6883 81.4914,46.6883 C77.8754,46.6883 75.0354,44.6873 75.0354,40.6833 L75.0354,20.5353 L72.3224,20.5353 C71.6114,20.5353 71.0964,20.0193 71.0964,19.3083 Z M40.7444,36.4853 L40.7444,16.4673 C40.7444,15.7573 41.2624,15.2403 41.9714,15.2403 L47.5254,15.2403 C48.2344,15.2403 48.7504,15.7573 48.7504,16.4673 L48.7504,35.2583 C48.7504,38.2283 50.3004,39.3903 52.7554,39.3903 C55.0794,39.3903 58.0494,38.2283 59.5994,36.8723 L59.5994,16.4673 C59.5994,15.7573 60.1144,15.2403 60.8244,15.2403 L66.3784,15.2403 C67.0874,15.2403 67.6054,15.7573 67.6054,16.4673 L67.6054,40.2953 C67.6054,41.7803 68.0564,42.3613 69.0254,42.3613 L69.0254,43.1363 C69.0254,44.7503 68.1214,46.6233 64.3754,46.6233 C61.5994,46.6233 59.6624,45.3323 59.6624,42.6843 L59.6624,42.1683 C56.9524,44.7503 53.6584,46.6233 49.5264,46.6233 C43.6514,46.6233 40.7444,43.1363 40.7444,36.4853 Z M18.3364,11.6243 C24.0814,11.6243 28.3434,15.3693 28.3434,25.5073 C28.3434,35.7103 24.0814,39.4553 18.3364,39.4553 C12.5884,39.4553 8.3294,35.7103 8.3294,25.5073 C8.3294,15.3693 12.5884,11.6243 18.3364,11.6243 Z M18.3364,46.8823 C28.2134,46.8823 36.6724,40.6833 36.6724,25.5073 C36.6724,10.3973 28.2134,4.1973 18.3364,4.1973 C8.4574,4.1973 0.0004,10.3973 0.0004,25.5073 C0.0004,40.6833 8.4574,46.8823 18.3364,46.8823 Z" id="Fill-1" fill="#FEFEFE" mask="url(#mask-2)"></path>
            </g>
        </g>
    </g>
</svg>