<?xml version="1.0" encoding="UTF-8"?>
<svg width="212px" height="212px" viewBox="0 0 212 212" version="1.1" xmlns="http://www.w3.org/2000/svg" xmlns:xlink="http://www.w3.org/1999/xlink">
    <!-- Generator: Sketch 52.5 (67469) - http://www.bohemiancoding.com/sketch -->
    <title>Icons_pencil</title>
    <desc>Created with Sketch.</desc>
    <defs>
        <polygon id="path-1" points="0 0.494 211.6873 0.494 211.6873 211.9995 0 211.9995"></polygon>
    </defs>
    <g id="Symbols" stroke="none" stroke-width="1" fill="none" fill-rule="evenodd">
        <g id="Icons-/-Pencil" transform="translate(0.000000, -1.000000)">
            <g id="Icons_pencil">
                <g id="Group-3" transform="translate(0.000000, 0.506000)">
                    <mask id="mask-2" fill="white">
                        <use xlink:href="#path-1"></use>
                    </mask>
                    <g id="Clip-2"></g>
                    <path d="M78.4773,190.7595 L78.5263,190.7595 L78.4773,190.7595 Z M24.6473,135.4175 L8.7773,203.2205 L76.5823,187.3515 L200.8923,63.0395 C203.0193,60.9165 204.1873,58.0885 204.1873,55.0855 C204.1873,52.0835 203.0193,49.2555 200.8923,47.1315 L164.8693,11.1065 C160.6163,6.8585 153.2063,6.8585 148.9583,11.1065 L24.6473,135.4175 Z M3.7513,211.9995 C2.7673,211.9995 1.8103,211.6135 1.0993,210.9015 C0.1813,209.9835 -0.1967,208.6595 0.0983,207.3955 L17.5863,132.6685 C17.7473,131.9895 18.0913,131.3645 18.5873,130.8715 L143.6553,5.8035 C150.7353,-1.2765 163.0873,-1.2765 170.1723,5.8035 L206.1943,41.8295 C209.7373,45.3685 211.6873,50.0755 211.6873,55.0855 C211.6873,60.0955 209.7373,64.8025 206.1943,68.3425 L81.1283,193.4105 C80.6353,193.9045 80.0133,194.2505 79.3313,194.4115 L4.6053,211.9025 C4.3223,211.9655 4.0363,211.9995 3.7513,211.9995 Z" id="Fill-1" fill="#00AEEF" mask="url(#mask-2)"></path>
                </g>
                <path d="M186.593,86.9003 C185.633,86.9003 184.674,86.5343 183.942,85.8023 L126.702,28.5653 C125.238,27.1003 125.238,24.7283 126.702,23.2623 C128.167,21.7983 130.54,21.7983 132.005,23.2623 L189.244,80.4993 C190.709,81.9643 190.709,84.3373 189.244,85.8023 C188.512,86.5343 187.552,86.9003 186.593,86.9003" id="Fill-4" fill="#00AEEF"></path>
                <path d="M43.2283,203.2626 C42.2693,203.2626 41.3103,202.8966 40.5773,202.1636 L10.3383,171.9246 C8.8733,170.4596 8.8733,168.0866 10.3383,166.6216 C11.8023,165.1576 14.1763,165.1576 15.6403,166.6216 L45.8803,196.8616 C47.3443,198.3256 47.3443,200.6996 45.8803,202.1636 C45.1473,202.8966 44.1883,203.2626 43.2283,203.2626" id="Fill-6" fill="#00AEEF"></path>
                <path d="M78.4724,195.0155 C76.7224,195.0155 75.1574,193.7855 74.8014,192.0025 L69.8954,167.4715 L49.6564,166.3925 C47.6764,166.2855 46.1214,164.6595 46.1064,162.6765 L45.9574,143.5555 L20.3984,137.6865 C18.3804,137.2225 17.1194,135.2055 17.5844,133.1895 C18.0474,131.1725 20.0614,129.9325 22.0784,130.3715 L50.5234,136.9055 C52.2154,137.2955 53.4184,138.7945 53.4334,140.5335 L53.5804,159.0925 L73.2014,160.1375 C74.9104,160.2305 76.3434,161.4655 76.6784,163.1455 L82.1544,190.5285 C82.5614,192.5595 81.2434,194.5365 79.2124,194.9425 C78.9654,194.9915 78.7164,195.0155 78.4724,195.0155" id="Fill-8" fill="#00AEEF"></path>
                <path d="M49.6838,144.3124 C48.7238,144.3124 47.7648,143.9464 47.0318,143.2134 C45.5678,141.7494 45.5678,139.3754 47.0318,137.9114 L144.1928,40.7524 C145.6578,39.2884 148.0308,39.2884 149.4958,40.7524 C150.9598,42.2184 150.9598,44.5904 149.4958,46.0564 L52.3348,143.2134 C51.6018,143.9464 50.6428,144.3124 49.6838,144.3124" id="Fill-10" fill="#00AEEF"></path>
                <path d="M73.0017,167.6327 C72.0427,167.6327 71.0827,167.2667 70.3497,166.5337 C68.8847,165.0697 68.8847,162.6957 70.3497,161.2317 L167.5107,64.0687 C168.9757,62.6037 171.3487,62.6037 172.8137,64.0687 C174.2787,65.5327 174.2787,67.9067 172.8137,69.3707 L75.6527,166.5337 C74.9197,167.2667 73.9607,167.6327 73.0017,167.6327" id="Fill-12" fill="#00AEEF"></path>
            </g>
        </g>
    </g>
</svg>