<?xml version="1.0" encoding="UTF-8"?>
<svg width="50px" height="50px" viewBox="0 0 50 50" version="1.1" xmlns="http://www.w3.org/2000/svg" xmlns:xlink="http://www.w3.org/1999/xlink">
    <!-- Generator: Sketch 52.5 (67469) - http://www.bohemiancoding.com/sketch -->
    <title>Icons_Phone</title>
    <desc>Created with Sketch.</desc>
    <defs>
        <polygon id="path-1" points="0 0 56 0 56 56 0 56"></polygon>
    </defs>
    <g id="Symbols" stroke="none" stroke-width="1" fill="none" fill-rule="evenodd">
        <g id="Icons-/-Phone">
            <g id="Icons_Phone" transform="translate(-3.000000, -3.000000)">
                <mask id="mask-2" fill="white">
                    <use xlink:href="#path-1"></use>
                </mask>
                <g id="Clip-2"></g>
                <path d="M13.2684022,5.92653644 C12.5064304,5.92653644 11.7732123,6.23072161 11.2316852,6.77459698 L7.139082,10.8839845 C2.64584459,15.3976688 11.288234,27.2820676 20.0542642,36.0861104 C35.0550446,51.1519395 42.8865811,51.3280973 45.1475766,49.0572973 L49.2392213,44.9469472 C49.8229205,44.3607169 50.1286676,43.5492356 50.0778695,42.7223525 C50.0261129,41.8954694 49.6226033,41.1282682 48.9718123,40.6180843 L42.5654986,35.6105804 C41.5159903,34.789473 40.0543463,34.7971739 39.0105887,35.624057 L37.5863245,36.7541626 C35.677082,38.2693127 32.9397343,38.1095193 31.2193074,36.3806694 L19.7609769,24.8726516 C18.0405501,23.1447644 17.8804881,20.3965092 19.3890964,18.4770623 L20.5143226,17.0475845 C21.338594,15.9993008 21.3443447,14.5313186 20.5267825,13.4762967 L15.5408992,7.04220291 C15.0338765,6.38858986 14.2699878,5.98333051 13.4457164,5.93231211 C13.3862922,5.92846167 13.3278264,5.92653644 13.2684022,5.92653644 Z M41.9683811,52 C37.8038938,52 30.5205936,49.3210528 18.6990087,37.4472427 C13.923027,32.6505507 -1.12280078,16.4613543 5.78382652,9.52285217 L9.87547125,5.41346463 C10.8473447,4.43641419 12.1968494,3.9166041 13.5645648,4.01094 C14.9370725,4.0966124 16.2089424,4.7704403 17.0533413,5.86011626 L22.0401831,12.29421 C23.4002309,14.050013 23.3916048,16.4960083 22.0181386,18.2412225 L20.8929124,19.6716629 C19.9871723,20.822946 20.0830178,22.4738243 21.1162324,23.5115193 L32.5745629,35.0195371 C33.6087359,36.057232 35.2515279,36.1534932 36.3978402,35.2438255 L37.8221044,34.1137199 C39.5617004,32.7333353 41.9961763,32.7246718 43.7434399,34.0915798 L50.1487952,39.0990837 C51.2347248,39.9471442 51.9056433,41.2245294 51.9909458,42.6029887 C52.0752899,43.9814481 51.5673087,45.3319917 50.5944768,46.3080795 L46.5028321,50.4184297 C46.0178538,50.905511 44.6300108,52 41.9683811,52 Z" id="Fill-1" stroke="#B5CB19" fill="#B5CB19" mask="url(#mask-2)"></path>
            </g>
        </g>
    </g>
</svg>