<?xml version="1.0" encoding="UTF-8"?>
<svg width="17px" height="17px" viewBox="0 0 17 17" version="1.1" xmlns="http://www.w3.org/2000/svg" xmlns:xlink="http://www.w3.org/1999/xlink">
    <!-- Generator: Sketch 52.5 (67469) - http://www.bohemiancoding.com/sketch -->
    <title>Icon / Search</title>
    <desc>Created with Sketch.</desc>
    <defs>
        <polygon id="path-1" points="4.27374302e-05 0 16.9738827 0 16.9738827 16.9772067 4.27374302e-05 16.9772067"></polygon>
    </defs>
    <g id="Symbols" stroke="none" stroke-width="1" fill="none" fill-rule="evenodd">
        <g id="Components-/-Masthead" transform="translate(-1289.000000, -16.000000)">
            <g id="Masthead">
                <g id="Utility-Nav" transform="translate(917.000000, 15.000000)">
                    <g id="Icons-/-Search-/-White" transform="translate(372.000000, 1.000000)">
                        <g id="Group-3">
                            <mask id="mask-2" fill="white">
                                <use xlink:href="#path-1"></use>
                            </mask>
                            <g id="Clip-2"></g>
                            <path d="M10.2560288,9.93050726 L10.0990874,10.1017894 L9.92775782,10.2591581 C8.98895894,11.1177531 7.76942263,11.5908564 6.49342542,11.5908564 C5.13252318,11.5908564 3.85334441,11.0609123 2.8911824,10.0987028 C1.93058743,9.13810782 1.40178296,7.85854916 1.40178296,6.49612737 C1.40178296,5.1336581 1.93058743,3.85452682 2.8911824,2.89393184 C3.85334441,1.93176983 5.13252318,1.40177821 6.49342542,1.40177821 C7.85390028,1.40177821 9.13341145,1.93176983 10.0956209,2.89393184 C11.057783,3.85609385 11.5877271,5.13560503 11.5877271,6.49612737 C11.5877271,7.77212458 11.1146237,8.99166089 10.2560288,9.93050726 M16.6917634,15.3312363 L11.7181712,10.3576441 C12.5421489,9.24514134 12.9895148,7.89715531 12.9895148,6.49612737 C12.9895148,4.7610352 12.313931,3.12951006 11.0869869,1.90251844 C9.85999525,0.675574302 8.2285176,-9.49720671e-06 6.49342542,-9.49720671e-06 C4.75833324,-9.49720671e-06 3.12676061,0.675574302 1.89981648,1.90251844 C0.674439385,3.12794302 4.27374302e-05,4.75946816 4.27374302e-05,6.49612737 C4.27374302e-05,8.23316648 0.674439385,9.86469162 1.89981648,11.0896888 C3.12676061,12.316633 4.75833324,12.9925966 6.49342542,12.9925966 C7.89440587,12.9925966 9.24243939,12.5448508 10.3545148,11.7213006 L15.3281545,16.6948927 C15.5103584,16.8767168 15.7525846,16.9772447 16.0099589,16.9772447 C16.2673807,16.9772447 16.5095595,16.8767168 16.6917634,16.6948927 C17.0679478,16.3187559 17.0679478,15.7069933 16.6917634,15.3312363" id="Fill-1" fill="#FFFFFF" mask="url(#mask-2)"></path>
                        </g>
                    </g>
                </g>
            </g>
        </g>
    </g>
</svg>